<svg width="39" height="39" viewBox="0 0 39 39" fill="none" xmlns="http://www.w3.org/2000/svg">
<circle cx="19.5" cy="19.5" r="19.5" fill="#EAEAEA"/>
<path d="M11.4004 12.5144C11.4004 11.171 12.4894 10.082 13.8328 10.082H26.4333L26.8055 17.7846V29.5412H11.4004V12.5144Z" fill="white"/>
<path d="M20.8986 18.9907H14.8891M16.8923 22.997H14.8891M22.9017 14.9844H14.8891M26.908 19.9923V14.7841C26.908 13.1013 26.908 12.2599 26.5805 11.6172C26.2924 11.0518 25.8328 10.5921 25.2674 10.3041C24.6246 9.97656 23.7832 9.97656 22.1004 9.97656H15.6904C14.0076 9.97656 13.1662 9.97656 12.5234 10.3041C11.958 10.5921 11.4984 11.0518 11.2103 11.6172C10.8828 12.2599 10.8828 13.1013 10.8828 14.7841V25.2005C10.8828 26.8833 10.8828 27.7247 11.2103 28.3674C11.4984 28.9328 11.958 29.3925 12.5234 29.6805C13.1662 30.008 14.0076 30.008 15.6904 30.008H18.8954" stroke="#727272" stroke-width="0.866667" stroke-linecap="round" stroke-linejoin="round"/>
<rect x="19.1797" y="20.6445" width="11.8527" height="11.8527" rx="4.74108" fill="#EAEAEA"/>
<path d="M22.7344 24.1992L27.7422 29.2071M27.7422 24.1992L22.7344 29.2071" stroke="#727272" stroke-width="0.866667" stroke-linecap="round" stroke-linejoin="round"/>
</svg>
