<svg width="28" height="30" viewBox="0 0 28 30" fill="none" xmlns="http://www.w3.org/2000/svg">
<path d="M4.39179 12.2226C4.63888 13.027 5.25659 13.7349 6.14384 14.3141C6.79525 16.3304 9.69287 17.7355 13.6013 18.1645C11.0406 17.4566 9.26609 16.2125 8.91793 14.6036C8.19914 11.4075 13.3654 7.98606 20.441 6.96714C22.7659 6.63466 25.0121 6.60248 27 6.81699C24.4505 6.10911 21.1037 5.92678 17.5771 6.43087C13.1184 7.0744 9.42333 8.67249 7.46911 10.5709C8.68207 8.03969 13.0847 5.71227 18.7227 4.89714C21.0475 4.56465 23.2937 4.53247 25.2816 4.74698C22.7322 4.03911 19.3853 3.85677 15.8587 4.36087C11.3888 5.00439 7.69374 6.60248 5.75076 8.50088C6.95248 5.96968 11.3663 3.63154 16.9931 2.82713C19.3179 2.49464 21.5641 2.46247 23.5521 2.67698C21.0026 1.9691 17.667 1.77604 14.1292 2.29086C7.05356 3.30978 1.88726 6.73119 2.60605 9.92736C2.80821 10.8176 3.43715 11.5791 4.39179 12.2226Z" fill="#FF8808"/>
<path d="M23.6082 18.068C23.3611 17.285 22.7434 16.6093 21.8562 16.0408C21.2048 14.0888 18.3071 12.7267 14.3987 12.3084C16.9594 12.9948 18.7227 14.2068 19.0933 15.762C19.8009 18.8616 14.6458 22.1865 7.55896 23.1733C5.23413 23.495 2.98791 23.5272 1 23.3127C3.54946 23.9991 6.89633 24.1814 10.4229 23.6881C14.8929 23.066 18.5879 21.5108 20.5309 19.6768C19.3179 22.1329 14.9153 24.396 9.27732 25.1789C6.95248 25.5007 4.70626 25.5328 2.71836 25.3291C5.26782 26.0155 8.61469 26.1978 12.1413 25.7045C16.6 25.0824 20.3063 23.5272 22.2492 21.6931C21.0363 24.1493 16.6337 26.4016 11.0069 27.1953C8.68207 27.517 6.43585 27.5492 4.44795 27.3454C6.99741 28.0319 10.3443 28.2142 13.8708 27.7208C20.9464 26.7341 26.1127 23.4092 25.394 20.3096C25.1918 19.4515 24.5629 18.7008 23.597 18.0787L23.6082 18.068Z" fill="#FF8808"/>
</svg>
