<svg width="19" height="12" viewBox="0 0 19 12" fill="none" xmlns="http://www.w3.org/2000/svg">
<path d="M9.20166 10.4633C9.60208 9.51988 10.537 8.85822 11.6264 8.85822H15.5759C16.6653 8.85822 17.6002 9.51988 18.0006 10.4633M16.2341 3.92141C16.2341 5.37556 15.0553 6.55437 13.6011 6.55437C12.147 6.55437 10.9682 5.37556 10.9682 3.92141C10.9682 2.46727 12.147 1.28845 13.6011 1.28845C15.0553 1.28845 16.2341 2.46727 16.2341 3.92141Z" stroke="#1A1A1A" stroke-width="1.42714" stroke-linecap="round" stroke-linejoin="round"/>
<path fill-rule="evenodd" clip-rule="evenodd" d="M4.09927 1.95249C3.70714 1.95249 3.38926 2.27037 3.38926 2.66249C3.38926 3.05462 3.70714 3.3725 4.09927 3.3725C4.4914 3.3725 4.80928 3.05462 4.80928 2.66249C4.80928 2.27037 4.4914 1.95249 4.09927 1.95249ZM1.55312 3.26322H2.3844C2.63242 3.97126 3.30655 4.47904 4.09927 4.47904C4.89231 4.47904 5.56665 3.97087 5.81443 3.26239H8.04775C8.37912 3.26239 8.64775 2.99376 8.64775 2.66239C8.64775 2.33102 8.37912 2.06239 8.04775 2.06239L5.81435 2.06239C5.56651 1.35402 4.89223 0.845947 4.09927 0.845947C3.306 0.845947 2.6315 1.35442 2.3839 2.06322H1.55312C1.22175 2.06322 0.953125 2.33185 0.953125 2.66322C0.953125 2.99459 1.22175 3.26322 1.55312 3.26322ZM7.04153 5.70253C7.43366 5.70253 7.75154 6.02041 7.75154 6.41254C7.75154 6.80466 7.43366 7.12255 7.04153 7.12255C6.6494 7.12255 6.33152 6.80466 6.33152 6.41254C6.33152 6.02041 6.6494 5.70253 7.04153 5.70253ZM8.85808 6.41254C8.85808 5.40929 8.04478 4.59599 7.04153 4.59599C6.29609 4.59599 5.65553 5.045 5.37553 5.68731H2.81292C2.48155 5.68731 2.21292 5.95594 2.21292 6.28731C2.21292 6.61868 2.48155 6.88731 2.81292 6.88731H5.28765C5.49639 7.66031 6.20254 8.22909 7.04153 8.22909C8.04478 8.22909 8.85808 7.41579 8.85808 6.41254Z" fill="black"/>
<path d="M2.3844 3.26322L2.41874 3.25119L2.41021 3.22683H2.3844V3.26322ZM5.81443 3.26239V3.226H5.78861L5.78008 3.25037L5.81443 3.26239ZM8.04775 2.06239V2.026V2.06239ZM5.81435 2.06239L5.78001 2.0744L5.78854 2.09877H5.81435V2.06239ZM2.3839 2.06322V2.09961H2.40973L2.41825 2.07522L2.3839 2.06322ZM5.37553 5.68731V5.72369H5.39936L5.40888 5.70185L5.37553 5.68731ZM5.28765 6.88731L5.32278 6.87782L5.31552 6.85092H5.28765V6.88731ZM3.42565 2.66249C3.42565 2.29046 3.72724 1.98887 4.09927 1.98887V1.9161C3.68705 1.9161 3.35287 2.25027 3.35287 2.66249H3.42565ZM4.09927 3.33612C3.72724 3.33612 3.42565 3.03452 3.42565 2.66249H3.35287C3.35287 3.07472 3.68705 3.40889 4.09927 3.40889V3.33612ZM4.77289 2.66249C4.77289 3.03452 4.4713 3.33612 4.09927 3.33612V3.40889C4.51149 3.40889 4.84567 3.07472 4.84567 2.66249H4.77289ZM4.09927 1.98887C4.4713 1.98887 4.77289 2.29046 4.77289 2.66249H4.84567C4.84567 2.25027 4.51149 1.9161 4.09927 1.9161V1.98887ZM2.3844 3.22683H1.55312V3.29961H2.3844V3.22683ZM4.09927 4.44265C3.32248 4.44265 2.66181 3.9451 2.41874 3.25119L2.35006 3.27525C2.60303 3.99743 3.29061 4.51543 4.09927 4.51543V4.44265ZM5.78008 3.25037C5.53725 3.94471 4.87636 4.44265 4.09927 4.44265V4.51543C4.90825 4.51543 5.59605 3.99702 5.84878 3.2744L5.78008 3.25037ZM8.04775 3.226H5.81443V3.29877H8.04775V3.226ZM8.61137 2.66239C8.61137 2.97366 8.35903 3.226 8.04775 3.226V3.29877C8.39922 3.29877 8.68414 3.01385 8.68414 2.66239H8.61137ZM8.04775 2.09877C8.35903 2.09877 8.61137 2.35111 8.61137 2.66239H8.68414C8.68414 2.31092 8.39922 2.026 8.04775 2.026V2.09877ZM5.81435 2.09877L8.04775 2.09877V2.026L5.81435 2.026V2.09877ZM4.09927 0.882335C4.87629 0.882335 5.53712 1.38018 5.78001 2.0744L5.8487 2.05037C5.59591 1.32786 4.90817 0.80956 4.09927 0.80956V0.882335ZM2.41825 2.07522C2.66091 1.38057 3.32195 0.882335 4.09927 0.882335V0.80956C3.29006 0.80956 2.60209 1.32827 2.34954 2.05122L2.41825 2.07522ZM1.55312 2.09961H2.3839V2.02683H1.55312V2.09961ZM0.989512 2.66322C0.989512 2.35194 1.24185 2.09961 1.55312 2.09961V2.02683C1.20166 2.02683 0.916738 2.31175 0.916738 2.66322H0.989512ZM1.55312 3.22683C1.24185 3.22683 0.989512 2.97449 0.989512 2.66322H0.916738C0.916738 3.01469 1.20166 3.29961 1.55312 3.29961V3.22683ZM7.78792 6.41254C7.78792 6.00032 7.45375 5.66614 7.04153 5.66614V5.73892C7.41356 5.73892 7.71515 6.04051 7.71515 6.41254H7.78792ZM7.04153 7.15893C7.45375 7.15893 7.78792 6.82476 7.78792 6.41254H7.71515C7.71515 6.78457 7.41356 7.08616 7.04153 7.08616V7.15893ZM6.29513 6.41254C6.29513 6.82476 6.62931 7.15893 7.04153 7.15893V7.08616C6.6695 7.08616 6.36791 6.78457 6.36791 6.41254H6.29513ZM7.04153 5.66614C6.62931 5.66614 6.29513 6.00032 6.29513 6.41254H6.36791C6.36791 6.04051 6.6695 5.73892 7.04153 5.73892V5.66614ZM7.04153 4.63238C8.02468 4.63238 8.82169 5.42938 8.82169 6.41254H8.89446C8.89446 5.38919 8.06488 4.5596 7.04153 4.5596V4.63238ZM5.40888 5.70185C5.68331 5.07233 6.31108 4.63238 7.04153 4.63238V4.5596C6.2811 4.5596 5.62775 5.01766 5.34217 5.67277L5.40888 5.70185ZM5.37553 5.65092H2.81292V5.72369H5.37553V5.65092ZM2.81292 5.65092C2.46145 5.65092 2.17653 5.93584 2.17653 6.28731H2.24931C2.24931 5.97603 2.50164 5.72369 2.81292 5.72369V5.65092ZM2.17653 6.28731C2.17653 6.63877 2.46145 6.92369 2.81292 6.92369V6.85092C2.50164 6.85092 2.24931 6.59858 2.24931 6.28731H2.17653ZM2.81292 6.92369H5.28765V6.85092H2.81292V6.92369ZM7.04153 8.1927C6.21939 8.1927 5.52734 7.63535 5.32278 6.87782L5.25252 6.89679C5.46544 7.68526 6.18568 8.26547 7.04153 8.26547V8.1927ZM8.82169 6.41254C8.82169 7.39569 8.02468 8.1927 7.04153 8.1927V8.26547C8.06488 8.26547 8.89446 7.43589 8.89446 6.41254H8.82169Z" fill="black"/>
</svg>
