<svg width="341" height="123" viewBox="0 0 341 123" fill="none" xmlns="http://www.w3.org/2000/svg">
<rect x="243.5" y="116.5" width="105" height="97" rx="4.5" transform="rotate(-90 243.5 116.5)" stroke="#E3E3E3"/>
<rect x="262" y="90" width="8" height="8" rx="4" fill="#D2D2D2"/>
<path d="M280.477 89.8086H281.531L284.819 97.7051H284.908L288.183 89.8086H289.25V99H288.386V91.6748H288.31L285.263 99H284.451L281.404 91.6748H281.328V99H280.477V89.8086ZM294.086 99.1396C292.144 99.1396 290.925 97.6924 290.925 95.5977C290.925 93.5029 292.169 92.0049 293.959 92.0049C295.458 92.0049 296.905 93.0713 296.905 95.4072V95.8135H291.789C291.827 97.3687 292.709 98.3652 294.086 98.3652C295.039 98.3652 295.597 97.8701 295.838 97.4385H296.765C296.46 98.3906 295.483 99.1396 294.086 99.1396ZM291.801 95.0645H296.016C296.016 93.7695 295.178 92.792 293.972 92.792C292.722 92.792 291.871 93.8203 291.801 95.0645ZM299.279 89.8086V99H298.403V89.8086H299.279ZM303.849 99.1396C302.046 99.1396 300.79 97.6924 300.79 95.585C300.79 93.4648 302.046 92.0049 303.849 92.0049C305.652 92.0049 306.896 93.4648 306.896 95.585C306.896 97.6924 305.652 99.1396 303.849 99.1396ZM303.849 98.3652C305.258 98.3652 306.033 97.0957 306.033 95.585C306.033 94.0742 305.258 92.792 303.849 92.792C302.427 92.792 301.653 94.0742 301.653 95.585C301.653 97.0957 302.427 98.3652 303.849 98.3652ZM309.283 94.7217V99H308.407V92.1064H309.245V93.1982H309.321C309.651 92.4873 310.336 92.0176 311.352 92.0176C312.749 92.0176 313.688 92.9062 313.688 94.5439V99H312.825V94.6074C312.825 93.4902 312.165 92.8047 311.124 92.8047C310.057 92.8047 309.283 93.5283 309.283 94.7217Z" fill="#727272"/>
<rect x="262" y="69" width="8" height="8" rx="4" fill="#B64635"/>
<path d="M286.835 71.6777C286.505 70.4717 285.54 69.5322 284.067 69.5322C282.303 69.5322 280.982 70.9541 280.982 73.4043C280.982 75.8418 282.29 77.2764 284.131 77.2764C285.769 77.2764 286.93 76.1528 286.949 74.3184H284.321V73.5186H287.825V74.3057C287.825 76.6543 286.276 78.127 284.131 78.127C281.706 78.127 280.094 76.2861 280.094 73.4043C280.094 70.5225 281.731 68.6816 284.067 68.6816C286.061 68.6816 287.47 70.0273 287.774 71.6777H286.835ZM289.501 78V71.1064H290.339V72.1729H290.402C290.682 71.4746 291.418 71.0049 292.269 71.0049C292.408 71.0049 292.611 71.0049 292.713 71.0176V71.8936C292.637 71.8809 292.434 71.8428 292.205 71.8428C291.151 71.8428 290.377 72.5664 290.377 73.5693V78H289.501ZM293.5 76.0703C293.5 74.6738 294.63 74.1406 296.039 74.0264C296.496 73.9946 297.613 73.9312 297.943 73.9121V73.2646C297.943 72.3379 297.347 71.7793 296.268 71.7793C295.366 71.7793 294.757 72.1982 294.592 72.8203H293.69C293.83 71.7285 294.884 71.0049 296.318 71.0049C297.347 71.0049 298.807 71.4492 298.807 73.3408V78H297.943V76.9336H297.893C297.613 77.5303 296.928 78.1523 295.772 78.1523C294.516 78.1523 293.5 77.4033 293.5 76.0703ZM294.363 76.1084C294.363 76.9209 295.011 77.3779 295.899 77.3779C297.169 77.3779 297.943 76.4639 297.943 75.3721V74.6357L296.166 74.7627C294.947 74.8516 294.363 75.3213 294.363 76.1084ZM300.673 80.5898V71.1064H301.511V72.3887H301.612C301.892 71.8047 302.438 71.0049 303.707 71.0049C305.408 71.0049 306.563 72.4268 306.563 74.5723C306.563 76.7178 305.408 78.1396 303.72 78.1396C302.463 78.1396 301.892 77.3525 301.612 76.7559H301.549V80.5898H300.673ZM301.536 74.5596C301.536 76.1973 302.285 77.3652 303.605 77.3652C304.951 77.3652 305.7 76.1338 305.7 74.5596C305.7 72.998 304.964 71.792 303.605 71.792C302.272 71.792 301.536 72.9346 301.536 74.5596ZM310.893 78.1396C308.95 78.1396 307.731 76.6924 307.731 74.5977C307.731 72.5029 308.976 71.0049 310.766 71.0049C312.264 71.0049 313.711 72.0713 313.711 74.4072V74.8135H308.595C308.633 76.3687 309.515 77.3652 310.893 77.3652C311.845 77.3652 312.403 76.8701 312.645 76.4385H313.571C313.267 77.3906 312.289 78.1396 310.893 78.1396ZM308.607 74.0645H312.822C312.822 72.7695 311.984 71.792 310.778 71.792C309.528 71.792 308.677 72.8203 308.607 74.0645ZM319.043 72.8203C318.891 72.1729 318.383 71.7666 317.532 71.7666C316.605 71.7539 315.971 72.2617 315.971 72.9346C315.971 73.4678 316.364 73.8359 317.202 74.0391L318.256 74.293C319.424 74.585 319.995 75.1943 319.995 76.1211C319.995 77.3018 319.043 78.1396 317.418 78.1396C315.945 78.1396 315.044 77.4668 314.866 76.248H315.768C315.907 76.9971 316.466 77.3779 317.405 77.3779C318.446 77.3779 319.119 76.9082 319.119 76.1719C319.119 75.626 318.738 75.2451 317.926 75.0547L316.872 74.8008C315.717 74.5342 315.095 73.8867 315.095 72.9727C315.095 71.8301 316.085 71.0049 317.532 71.0049C318.891 71.0176 319.754 71.7412 319.906 72.8203H319.043Z" fill="#727272"/>
<rect x="262" y="49" width="8" height="8" rx="4" fill="#FF7901"/>
<path d="M280.2 58V48.8086H283.336C285.151 48.8086 286.053 49.8369 286.053 51.2207C286.053 52.3633 285.405 52.998 284.58 53.2139V53.29C285.481 53.3535 286.421 54.1787 286.421 55.5879C286.421 56.9717 285.507 58 283.501 58H280.2ZM283.488 57.1875C284.897 57.1875 285.545 56.502 285.545 55.5752C285.545 54.5469 284.745 53.7217 283.526 53.7217H281.102V57.1875H283.488ZM283.387 52.9346C284.453 52.9346 285.189 52.2236 285.189 51.2207C285.189 50.2812 284.567 49.6211 283.323 49.6211H281.102V52.9346H283.387ZM287.69 56.0703C287.69 54.6738 288.82 54.1406 290.229 54.0264C290.687 53.9946 291.804 53.9312 292.134 53.9121V53.2646C292.134 52.3379 291.537 51.7793 290.458 51.7793C289.557 51.7793 288.947 52.1982 288.782 52.8203H287.881C288.021 51.7285 289.074 51.0049 290.509 51.0049C291.537 51.0049 292.997 51.4492 292.997 53.3408V58H292.134V56.9336H292.083C291.804 57.5303 291.118 58.1523 289.963 58.1523C288.706 58.1523 287.69 57.4033 287.69 56.0703ZM288.554 56.1084C288.554 56.9209 289.201 57.3779 290.09 57.3779C291.359 57.3779 292.134 56.4639 292.134 55.3721V54.6357L290.356 54.7627C289.138 54.8516 288.554 55.3213 288.554 56.1084ZM295.739 53.7217V58H294.863V51.1064H295.701V52.1982H295.777C296.107 51.4873 296.793 51.0176 297.809 51.0176C299.205 51.0176 300.145 51.9062 300.145 53.5439V58H299.281V53.6074C299.281 52.4902 298.621 51.8047 297.58 51.8047C296.514 51.8047 295.739 52.5283 295.739 53.7217ZM301.668 56.0703C301.668 54.6738 302.798 54.1406 304.207 54.0264C304.664 53.9946 305.781 53.9312 306.111 53.9121V53.2646C306.111 52.3379 305.515 51.7793 304.436 51.7793C303.534 51.7793 302.925 52.1982 302.76 52.8203H301.858C301.998 51.7285 303.052 51.0049 304.486 51.0049C305.515 51.0049 306.975 51.4492 306.975 53.3408V58H306.111V56.9336H306.061C305.781 57.5303 305.096 58.1523 303.94 58.1523C302.684 58.1523 301.668 57.4033 301.668 56.0703ZM302.531 56.1084C302.531 56.9209 303.179 57.3779 304.067 57.3779C305.337 57.3779 306.111 56.4639 306.111 55.3721V54.6357L304.334 54.7627C303.115 54.8516 302.531 55.3213 302.531 56.1084ZM309.717 53.7217V58H308.841V51.1064H309.679V52.1982H309.755C310.085 51.4873 310.771 51.0176 311.786 51.0176C313.183 51.0176 314.122 51.9062 314.122 53.5439V58H313.259V53.6074C313.259 52.4902 312.599 51.8047 311.558 51.8047C310.491 51.8047 309.717 52.5283 309.717 53.7217ZM315.646 56.0703C315.646 54.6738 316.775 54.1406 318.185 54.0264C318.642 53.9946 319.759 53.9312 320.089 53.9121V53.2646C320.089 52.3379 319.492 51.7793 318.413 51.7793C317.512 51.7793 316.902 52.1982 316.737 52.8203H315.836C315.976 51.7285 317.029 51.0049 318.464 51.0049C319.492 51.0049 320.952 51.4492 320.952 53.3408V58H320.089V56.9336H320.038C319.759 57.5303 319.073 58.1523 317.918 58.1523C316.661 58.1523 315.646 57.4033 315.646 56.0703ZM316.509 56.1084C316.509 56.9209 317.156 57.3779 318.045 57.3779C319.314 57.3779 320.089 56.4639 320.089 55.3721V54.6357L318.312 54.7627C317.093 54.8516 316.509 55.3213 316.509 56.1084Z" fill="#727272"/>
<rect x="262" y="29" width="8" height="8" rx="4" fill="#FFB24C"/>
<path d="M280.291 38H279.339L282.678 28.8086H283.655L286.994 38H286.042L285.077 35.2705H281.256L280.291 38ZM281.548 34.4707H284.798L283.198 29.9766H283.135L281.548 34.4707ZM288.162 40.5898V31.1064H289V32.3887H289.102C289.381 31.8047 289.927 31.0049 291.196 31.0049C292.897 31.0049 294.053 32.4268 294.053 34.5723C294.053 36.7178 292.897 38.1396 291.209 38.1396C289.952 38.1396 289.381 37.3525 289.102 36.7559H289.038V40.5898H288.162ZM289.025 34.5596C289.025 36.1973 289.774 37.3652 291.095 37.3652C292.44 37.3652 293.189 36.1338 293.189 34.5596C293.189 32.998 292.453 31.792 291.095 31.792C289.762 31.792 289.025 32.9346 289.025 34.5596ZM295.563 40.5898V31.1064H296.401V32.3887H296.503C296.782 31.8047 297.328 31.0049 298.598 31.0049C300.299 31.0049 301.454 32.4268 301.454 34.5723C301.454 36.7178 300.299 38.1396 298.61 38.1396C297.354 38.1396 296.782 37.3525 296.503 36.7559H296.439V40.5898H295.563ZM296.427 34.5596C296.427 36.1973 297.176 37.3652 298.496 37.3652C299.842 37.3652 300.591 36.1338 300.591 34.5596C300.591 32.998 299.854 31.792 298.496 31.792C297.163 31.792 296.427 32.9346 296.427 34.5596ZM303.841 28.8086V38H302.965V28.8086H303.841ZM308.513 38.1396C306.57 38.1396 305.352 36.6924 305.352 34.5977C305.352 32.5029 306.596 31.0049 308.386 31.0049C309.884 31.0049 311.331 32.0713 311.331 34.4072V34.8135H306.215C306.253 36.3687 307.135 37.3652 308.513 37.3652C309.465 37.3652 310.023 36.8701 310.265 36.4385H311.191C310.887 37.3906 309.909 38.1396 308.513 38.1396ZM306.228 34.0645H310.442C310.442 32.7695 309.604 31.792 308.398 31.792C307.148 31.792 306.297 32.8203 306.228 34.0645Z" fill="#727272"/>
<mask id="mask0_544_52" style="mask-type:alpha" maskUnits="userSpaceOnUse" x="50" y="6" width="109" height="110">
<ellipse cx="104.326" cy="60.5823" rx="54.326" ry="54.5823" fill="#D9D9D9"/>
</mask>
<g mask="url(#mask0_544_52)">
<path d="M77.9154 60.9054C77.9128 57.9404 76.954 48.8027 77.9163 45.9998L51.5516 37.6904C49.2038 44.8866 49.8208 58.688 50.5582 66.2246C51.2957 73.7612 53.586 81.0611 57.2837 87.6602L81.2282 73.8174C79.0493 69.8665 77.9089 65.4223 77.9154 60.9054Z" fill="#D2D2D2"/>
<path d="M88.8948 81.4344C86.5295 79.6614 83.0629 75.7233 81.4044 73.2709L56.9016 86.7919C60.2026 93.5519 69.2415 102.899 75.6913 106.818C82.1412 110.736 92.7033 114.981 104.51 115.364L104.256 87.5571C99.8021 86.9453 95.1579 86.0571 91.5609 83.3477" fill="#FFC560"/>
<path d="M79.3666 51.7731C80.7621 47.722 83.1078 44.068 86.2055 41.12L66.673 21.4951C60.4229 27.6061 55.2311 35.1784 52.5 43.5L79.3666 51.7731Z" fill="#D2D2D2"/>
<path d="M85.8549 41.8905C87.1176 41.1 104.537 35.0588 105.914 34.4923L104.137 6.55762C80.0149 6.55762 69.2648 20.2056 66.6846 21.8644L85.8549 41.8905Z" fill="#B64635"/>
<path d="M104.482 115.342C118.851 115.342 132.631 109.607 142.792 99.3988C152.952 89.1906 158.66 75.3453 158.66 60.9087C158.66 46.4722 152.952 32.6269 142.792 22.4187C132.631 12.2105 118.851 6.47559 104.482 6.47559C104.377 6.47559 104.22 6.47559 104.117 6.47559L104.459 34.202C109.146 34.197 113.75 35.4376 117.805 37.7978C121.861 40.1581 125.223 43.554 127.55 47.6411C129.877 51.7283 131.087 56.3611 131.057 61.0698C131.027 65.7784 129.757 70.3952 127.378 74.4518C124.998 78.5084 121.593 81.8605 117.508 84.168C113.422 86.4755 108.802 87.6563 104.116 87.5905C104.116 87.0458 104.186 92.9134 104.186 92.9134C104.186 92.9134 104.19 93.1685 104.319 102.99L104.395 108.73C104.383 107.837 104.472 114.598 104.482 115.342Z" fill="#FF8518"/>
<path d="M114.724 84.5188C112.038 85.7465 106.933 86.9003 103.995 87.1783L103.977 115.265C111.463 115.617 123.138 113.49 130.853 108.557C137.379 104.768 146.283 97.9871 151.839 87.1247L127.467 73.9465C124.787 77.5728 121.774 81.2331 117.678 83.0939" fill="#FFC560"/>
<path d="M115.073 84.9214C111.14 86.8092 107.994 87.3094 103.623 87.1579L103.67 115.142C112.333 115.642 120.161 114.08 128.142 110.103L115.073 84.9214Z" fill="#FFC560"/>
</g>
<ellipse cx="104.421" cy="61.0899" rx="33.6377" ry="34.0923" fill="white"/>
<path d="M3.992 12V4.08L4.508 4.644H2.096V3.6H5.18V12H3.992ZM7.80941 12.072C7.58541 12.072 7.39341 11.996 7.23341 11.844C7.07341 11.684 6.99341 11.484 6.99341 11.244C6.99341 11.004 7.07341 10.808 7.23341 10.656C7.39341 10.504 7.58541 10.428 7.80941 10.428C8.02541 10.428 8.20941 10.504 8.36141 10.656C8.52141 10.808 8.60141 11.004 8.60141 11.244C8.60141 11.484 8.52141 11.684 8.36141 11.844C8.20941 11.996 8.02541 12.072 7.80941 12.072ZM9.72134 12V11.184L13.1413 7.884C13.4453 7.596 13.6693 7.344 13.8133 7.128C13.9653 6.904 14.0653 6.7 14.1133 6.516C14.1693 6.324 14.1973 6.14 14.1973 5.964C14.1973 5.532 14.0453 5.192 13.7413 4.944C13.4373 4.696 12.9933 4.572 12.4093 4.572C11.9613 4.572 11.5573 4.648 11.1973 4.8C10.8373 4.944 10.5253 5.172 10.2613 5.484L9.44534 4.776C9.76534 4.368 10.1933 4.056 10.7293 3.84C11.2733 3.616 11.8693 3.504 12.5173 3.504C13.1013 3.504 13.6093 3.6 14.0413 3.792C14.4733 3.976 14.8053 4.244 15.0373 4.596C15.2773 4.948 15.3973 5.364 15.3973 5.844C15.3973 6.116 15.3613 6.384 15.2893 6.648C15.2173 6.912 15.0813 7.192 14.8813 7.488C14.6813 7.784 14.3933 8.116 14.0173 8.484L10.9693 11.424L10.6813 10.956H15.7573V12H9.72134ZM19.456 12.096C18.864 12.096 18.288 12.004 17.728 11.82C17.176 11.636 16.724 11.388 16.372 11.076L16.924 10.128C17.204 10.392 17.568 10.608 18.016 10.776C18.464 10.944 18.94 11.028 19.444 11.028C20.084 11.028 20.576 10.892 20.92 10.62C21.264 10.348 21.436 9.984 21.436 9.528C21.436 9.216 21.36 8.944 21.208 8.712C21.056 8.48 20.792 8.304 20.416 8.184C20.048 8.056 19.54 7.992 18.892 7.992H16.984L17.428 3.6H22.168V4.644H17.872L18.496 4.056L18.148 7.524L17.524 6.948H19.144C19.984 6.948 20.66 7.056 21.172 7.272C21.684 7.488 22.056 7.788 22.288 8.172C22.52 8.548 22.636 8.984 22.636 9.48C22.636 9.96 22.52 10.4 22.288 10.8C22.056 11.192 21.704 11.508 21.232 11.748C20.768 11.98 20.176 12.096 19.456 12.096ZM24.2106 12L28.0346 6.4H28.6506L24.8266 12H24.2106ZM24.6586 9.408C24.4026 9.408 24.1759 9.344 23.9786 9.216C23.7813 9.088 23.6266 8.90933 23.5146 8.68C23.4079 8.45067 23.3546 8.184 23.3546 7.88C23.3546 7.576 23.4079 7.30933 23.5146 7.08C23.6266 6.85067 23.7813 6.672 23.9786 6.544C24.1759 6.416 24.4026 6.352 24.6586 6.352C24.9199 6.352 25.1466 6.416 25.3386 6.544C25.5359 6.672 25.6879 6.85067 25.7946 7.08C25.9013 7.30933 25.9546 7.576 25.9546 7.88C25.9546 8.184 25.9013 8.45067 25.7946 8.68C25.6879 8.90933 25.5359 9.088 25.3386 9.216C25.1466 9.344 24.9199 9.408 24.6586 9.408ZM24.6586 8.952C24.9039 8.952 25.0959 8.85867 25.2346 8.672C25.3733 8.48 25.4426 8.216 25.4426 7.88C25.4426 7.544 25.3733 7.28267 25.2346 7.096C25.0959 6.904 24.9039 6.808 24.6586 6.808C24.4186 6.808 24.2266 6.904 24.0826 7.096C23.9439 7.28267 23.8746 7.544 23.8746 7.88C23.8746 8.21067 23.9439 8.472 24.0826 8.664C24.2266 8.856 24.4186 8.952 24.6586 8.952ZM28.2026 12.048C27.9466 12.048 27.7199 11.984 27.5226 11.856C27.3253 11.728 27.1733 11.5493 27.0666 11.32C26.9599 11.0907 26.9066 10.824 26.9066 10.52C26.9066 10.216 26.9599 9.94933 27.0666 9.72C27.1733 9.49067 27.3253 9.312 27.5226 9.184C27.7199 9.056 27.9466 8.992 28.2026 8.992C28.4639 8.992 28.6906 9.056 28.8826 9.184C29.0799 9.312 29.2319 9.49067 29.3386 9.72C29.4506 9.94933 29.5066 10.216 29.5066 10.52C29.5066 10.824 29.4506 11.0907 29.3386 11.32C29.2319 11.5493 29.0799 11.728 28.8826 11.856C28.6906 11.984 28.4639 12.048 28.2026 12.048ZM28.2026 11.592C28.4426 11.592 28.6319 11.4987 28.7706 11.312C28.9146 11.12 28.9866 10.856 28.9866 10.52C28.9866 10.1893 28.9146 9.928 28.7706 9.736C28.6319 9.544 28.4426 9.448 28.2026 9.448C27.9626 9.448 27.7706 9.544 27.6266 9.736C27.4879 9.92267 27.4186 10.184 27.4186 10.52C27.4186 10.856 27.4879 11.12 27.6266 11.312C27.7706 11.4987 27.9626 11.592 28.2026 11.592Z" fill="#4D4D4D"/>
<path d="M57.5 66.0332L42.8928 54.5332L31 54.5332" stroke="#C0C0C0" stroke-width="0.788901"/>
<path d="M79.0085 22.4165L69.1473 7.68311H37.1968" stroke="#C0C0C0" stroke-width="0.788901"/>
<path d="M143.861 33.9139L156.089 18.5303H169.501" stroke="#C0C0C0" stroke-width="0.788901"/>
<path d="M206.541 25.3965L211.856 17.6129H212.946L207.631 25.3965H206.541ZM207.186 21.8049C206.823 21.8049 206.5 21.7159 206.218 21.538C205.937 21.3601 205.718 21.1118 205.562 20.793C205.407 20.4743 205.329 20.0999 205.329 19.67C205.329 19.24 205.407 18.8657 205.562 18.5469C205.718 18.2281 205.937 17.9798 206.218 17.8019C206.5 17.624 206.823 17.535 207.186 17.535C207.564 17.535 207.89 17.624 208.164 17.8019C208.446 17.9798 208.665 18.2281 208.82 18.5469C208.976 18.8657 209.054 19.24 209.054 19.67C209.054 20.0999 208.976 20.4743 208.82 20.793C208.665 21.1118 208.446 21.3601 208.164 21.538C207.89 21.7159 207.564 21.8049 207.186 21.8049ZM207.197 21.0265C207.493 21.0265 207.723 20.9116 207.886 20.6818C208.057 20.4446 208.142 20.1073 208.142 19.67C208.142 19.2326 208.057 18.899 207.886 18.6692C207.723 18.432 207.493 18.3134 207.197 18.3134C206.9 18.3134 206.663 18.432 206.485 18.6692C206.315 18.9064 206.23 19.24 206.23 19.67C206.23 20.0999 206.315 20.4335 206.485 20.6707C206.663 20.9079 206.9 21.0265 207.197 21.0265ZM212.29 25.4743C211.926 25.4743 211.604 25.3854 211.322 25.2075C211.041 25.0295 210.822 24.7812 210.666 24.4624C210.511 24.1437 210.433 23.7693 210.433 23.3394C210.433 22.9094 210.511 22.5351 210.666 22.2163C210.822 21.8976 211.041 21.6492 211.322 21.4713C211.604 21.2934 211.926 21.2044 212.29 21.2044C212.668 21.2044 212.994 21.2934 213.268 21.4713C213.55 21.6492 213.769 21.8976 213.924 22.2163C214.08 22.5351 214.158 22.9094 214.158 23.3394C214.158 23.7693 214.08 24.1437 213.924 24.4624C213.769 24.7812 213.55 25.0295 213.268 25.2075C212.994 25.3854 212.668 25.4743 212.29 25.4743ZM212.29 24.696C212.586 24.696 212.82 24.5774 212.99 24.3401C213.161 24.1029 213.246 23.7693 213.246 23.3394C213.246 22.9094 213.161 22.5758 212.99 22.3386C212.82 22.1014 212.586 21.9828 212.29 21.9828C212.001 21.9828 211.767 22.1014 211.589 22.3386C211.419 22.5684 211.333 22.902 211.333 23.3394C211.333 23.7767 211.419 24.114 211.589 24.3513C211.767 24.5811 212.001 24.696 212.29 24.696Z" fill="#727272"/>
<path d="M180.594 26.2975C179.387 26.2975 178.189 26.1405 176.999 25.8265C175.81 25.496 174.801 25.0333 173.975 24.4384L175.537 21.3647C176.198 21.8439 176.966 22.224 177.842 22.5049C178.718 22.7858 179.602 22.9263 180.494 22.9263C181.502 22.9263 182.296 22.728 182.874 22.3314C183.452 21.9348 183.742 21.3895 183.742 20.6954C183.742 20.0344 183.485 19.5139 182.973 19.1338C182.461 18.7537 181.635 18.5637 180.494 18.5637H178.66V15.9114L183.494 10.4332L183.94 11.8709H174.843V8.64852H186.989V11.2512L182.18 16.7294L180.147 15.5643H181.312C183.444 15.5643 185.055 16.0436 186.146 17.002C187.237 17.9605 187.782 19.1916 187.782 20.6954C187.782 21.6704 187.526 22.5875 187.014 23.4469C186.501 24.2896 185.716 24.9754 184.659 25.5042C183.601 26.0331 182.246 26.2975 180.594 26.2975ZM188.623 26V23.3973L195.315 17.0764C195.844 16.5972 196.233 16.1675 196.48 15.7874C196.728 15.4073 196.894 15.0603 196.976 14.7463C197.075 14.4323 197.125 14.1432 197.125 13.8788C197.125 13.1847 196.885 12.6559 196.406 12.2923C195.943 11.9123 195.258 11.7222 194.349 11.7222C193.622 11.7222 192.944 11.8627 192.316 12.1436C191.705 12.4245 191.184 12.8625 190.754 13.4574L187.829 11.5735C188.49 10.582 189.416 9.79702 190.606 9.21864C191.796 8.64026 193.167 8.35107 194.72 8.35107C196.009 8.35107 197.133 8.56589 198.092 8.99555C199.067 9.40868 199.819 9.99533 200.347 10.7555C200.893 11.5156 201.165 12.4245 201.165 13.4821C201.165 14.044 201.091 14.6059 200.942 15.1677C200.81 15.7131 200.529 16.2914 200.099 16.9029C199.686 17.5143 199.075 18.2001 198.265 18.9603L192.713 24.1905L191.944 22.728H201.735V26H188.623Z" fill="#FF8808"/>
<path d="M177.409 115L182.154 108.052H183.127L178.382 115H177.409ZM177.985 111.794C177.661 111.794 177.373 111.715 177.122 111.556C176.87 111.397 176.675 111.175 176.536 110.891C176.397 110.606 176.328 110.272 176.328 109.888C176.328 109.504 176.397 109.17 176.536 108.886C176.675 108.601 176.87 108.38 177.122 108.221C177.373 108.062 177.661 107.983 177.985 107.983C178.323 107.983 178.614 108.062 178.859 108.221C179.11 108.38 179.305 108.601 179.444 108.886C179.583 109.17 179.653 109.504 179.653 109.888C179.653 110.272 179.583 110.606 179.444 110.891C179.305 111.175 179.11 111.397 178.859 111.556C178.614 111.715 178.323 111.794 177.985 111.794ZM177.995 111.099C178.26 111.099 178.465 110.997 178.61 110.792C178.763 110.58 178.839 110.279 178.839 109.888C178.839 109.498 178.763 109.2 178.61 108.995C178.465 108.783 178.26 108.677 177.995 108.677C177.73 108.677 177.519 108.783 177.36 108.995C177.208 109.207 177.132 109.504 177.132 109.888C177.132 110.272 177.208 110.57 177.36 110.782C177.519 110.993 177.73 111.099 177.995 111.099ZM182.541 115.069C182.217 115.069 181.929 114.99 181.677 114.831C181.426 114.672 181.231 114.451 181.092 114.166C180.953 113.882 180.883 113.548 180.883 113.164C180.883 112.78 180.953 112.446 181.092 112.161C181.231 111.877 181.426 111.655 181.677 111.496C181.929 111.337 182.217 111.258 182.541 111.258C182.878 111.258 183.17 111.337 183.414 111.496C183.666 111.655 183.861 111.877 184 112.161C184.139 112.446 184.209 112.78 184.209 113.164C184.209 113.548 184.139 113.882 184 114.166C183.861 114.451 183.666 114.672 183.414 114.831C183.17 114.99 182.878 115.069 182.541 115.069ZM182.541 114.375C182.806 114.375 183.014 114.269 183.166 114.057C183.319 113.845 183.395 113.548 183.395 113.164C183.395 112.78 183.319 112.482 183.166 112.27C183.014 112.059 182.806 111.953 182.541 111.953C182.283 111.953 182.075 112.059 181.916 112.27C181.764 112.476 181.687 112.773 181.687 113.164C181.687 113.554 181.764 113.855 181.916 114.067C182.075 114.272 182.283 114.375 182.541 114.375Z" fill="#727272"/>
<path d="M152.129 117.266C151.052 117.266 149.983 117.125 148.921 116.845C147.873 116.55 146.974 116.137 146.221 115.606L147.637 112.862C148.227 113.29 148.906 113.629 149.673 113.88C150.455 114.131 151.244 114.256 152.041 114.256C152.94 114.256 153.648 114.079 154.165 113.725C154.681 113.371 154.939 112.877 154.939 112.243C154.939 111.845 154.836 111.49 154.629 111.181C154.423 110.871 154.054 110.635 153.523 110.473C153.007 110.31 152.277 110.229 151.332 110.229H147.372L148.168 101.511H157.616V104.388H149.452L151.31 102.75L150.757 108.968L148.899 107.331H152.173C153.707 107.331 154.939 107.545 155.868 107.972C156.813 108.385 157.498 108.953 157.926 109.676C158.354 110.399 158.568 111.218 158.568 112.132C158.568 113.047 158.339 113.895 157.882 114.677C157.425 115.444 156.717 116.071 155.758 116.557C154.814 117.03 153.604 117.266 152.129 117.266ZM164.273 117.266C163.196 117.266 162.127 117.125 161.065 116.845C160.003 116.55 159.103 116.137 158.365 115.606L159.759 112.862C160.349 113.29 161.035 113.629 161.817 113.88C162.599 114.131 163.388 114.256 164.185 114.256C165.084 114.256 165.792 114.079 166.309 113.725C166.825 113.371 167.083 112.884 167.083 112.265C167.083 111.675 166.855 111.21 166.397 110.871C165.94 110.532 165.202 110.362 164.185 110.362H162.547V107.994L166.862 103.105L167.26 104.388H159.14V101.511H169.982V103.835L165.689 108.725L163.875 107.685H164.915C166.818 107.685 168.256 108.113 169.229 108.968C170.203 109.824 170.69 110.923 170.69 112.265C170.69 113.135 170.461 113.954 170.004 114.721C169.547 115.473 168.846 116.085 167.902 116.557C166.958 117.03 165.748 117.266 164.273 117.266Z" fill="#F6A92B"/>
<path d="M23.8363 61.0742L27.5472 55.6399H28.308L24.5971 61.0742H23.8363ZM24.2866 58.5667C24.033 58.5667 23.8078 58.5045 23.6111 58.3803C23.4145 58.2561 23.2618 58.0827 23.1531 57.8602C23.0444 57.6376 22.9901 57.3763 22.9901 57.0761C22.9901 56.7759 23.0444 56.5145 23.1531 56.292C23.2618 56.0694 23.4145 55.8961 23.6111 55.7718C23.8078 55.6476 24.033 55.5855 24.2866 55.5855C24.5505 55.5855 24.7782 55.6476 24.9697 55.7718C25.1664 55.8961 25.3191 56.0694 25.4278 56.292C25.5365 56.5145 25.5908 56.7759 25.5908 57.0761C25.5908 57.3763 25.5365 57.6376 25.4278 57.8602C25.3191 58.0827 25.1664 58.2561 24.9697 58.3803C24.7782 58.5045 24.5505 58.5667 24.2866 58.5667ZM24.2943 58.0232C24.5013 58.0232 24.6618 57.943 24.7757 57.7826C24.8947 57.6169 24.9542 57.3814 24.9542 57.0761C24.9542 56.7707 24.8947 56.5378 24.7757 56.3774C24.6618 56.2118 24.5013 56.129 24.2943 56.129C24.0873 56.129 23.9217 56.2118 23.7975 56.3774C23.6784 56.543 23.6189 56.7759 23.6189 57.0761C23.6189 57.3763 23.6784 57.6092 23.7975 57.7748C23.9217 57.9404 24.0873 58.0232 24.2943 58.0232ZM27.8499 61.1286C27.5963 61.1286 27.3712 61.0665 27.1745 60.9422C26.9779 60.818 26.8252 60.6446 26.7165 60.4221C26.6078 60.1995 26.5535 59.9382 26.5535 59.638C26.5535 59.3378 26.6078 59.0764 26.7165 58.8539C26.8252 58.6313 26.9779 58.458 27.1745 58.3338C27.3712 58.2095 27.5963 58.1474 27.8499 58.1474C28.1139 58.1474 28.3416 58.2095 28.5331 58.3338C28.7298 58.458 28.8825 58.6313 28.9912 58.8539C29.0998 59.0764 29.1542 59.3378 29.1542 59.638C29.1542 59.9382 29.0998 60.1995 28.9912 60.4221C28.8825 60.6446 28.7298 60.818 28.5331 60.9422C28.3416 61.0665 28.1139 61.1286 27.8499 61.1286ZM27.8499 60.5851C28.057 60.5851 28.22 60.5023 28.339 60.3367C28.4581 60.1711 28.5176 59.9382 28.5176 59.638C28.5176 59.3378 28.4581 59.1049 28.339 58.9393C28.22 58.7737 28.057 58.6909 27.8499 58.6909C27.6481 58.6909 27.4851 58.7737 27.3608 58.9393C27.2418 59.0997 27.1823 59.3326 27.1823 59.638C27.1823 59.9434 27.2418 60.1788 27.3608 60.3445C27.4851 60.5049 27.6481 60.5851 27.8499 60.5851Z" fill="#727272"/>
<path d="M0.594 62V60.11L5.454 55.52C5.838 55.172 6.12 54.86 6.3 54.584C6.48 54.308 6.6 54.056 6.66 53.828C6.732 53.6 6.768 53.39 6.768 53.198C6.768 52.694 6.594 52.31 6.246 52.046C5.91 51.77 5.412 51.632 4.752 51.632C4.224 51.632 3.732 51.734 3.276 51.938C2.832 52.142 2.454 52.46 2.142 52.892L0.018 51.524C0.498 50.804 1.17 50.234 2.034 49.814C2.898 49.394 3.894 49.184 5.022 49.184C5.958 49.184 6.774 49.34 7.47 49.652C8.178 49.952 8.724 50.378 9.108 50.93C9.504 51.482 9.702 52.142 9.702 52.91C9.702 53.318 9.648 53.726 9.54 54.134C9.444 54.53 9.24 54.95 8.928 55.394C8.628 55.838 8.184 56.336 7.596 56.888L3.564 60.686L3.006 59.624H10.116V62H0.594ZM10.6712 62V60.11L15.5312 55.52C15.9152 55.172 16.1972 54.86 16.3772 54.584C16.5572 54.308 16.6772 54.056 16.7372 53.828C16.8092 53.6 16.8452 53.39 16.8452 53.198C16.8452 52.694 16.6712 52.31 16.3232 52.046C15.9872 51.77 15.4892 51.632 14.8292 51.632C14.3012 51.632 13.8092 51.734 13.3532 51.938C12.9092 52.142 12.5312 52.46 12.2192 52.892L10.0952 51.524C10.5752 50.804 11.2472 50.234 12.1112 49.814C12.9752 49.394 13.9712 49.184 15.0992 49.184C16.0352 49.184 16.8512 49.34 17.5472 49.652C18.2552 49.952 18.8012 50.378 19.1852 50.93C19.5812 51.482 19.7792 52.142 19.7792 52.91C19.7792 53.318 19.7252 53.726 19.6172 54.134C19.5212 54.53 19.3172 54.95 19.0052 55.394C18.7052 55.838 18.2612 56.336 17.6732 56.888L13.6412 60.686L13.0832 59.624H20.1932V62H10.6712Z" fill="#707070"/>
<g filter="url(#filter0_d_544_52)">
<rect x="132" y="54" width="55" height="39" rx="6" fill="#1E1E1E"/>
<rect x="132.446" y="54.4456" width="54.1089" height="38.1089" rx="5.55443" stroke="black" stroke-width="0.891145"/>
</g>
<path d="M142.193 69H141.241L144.58 59.8086H145.558L148.896 69H147.944L146.979 66.2705H143.158L142.193 69ZM143.45 65.4707H146.7L145.101 60.9766H145.037L143.45 65.4707ZM149.669 71.5898V62.1064H150.507V63.3887H150.609C150.888 62.8047 151.434 62.0049 152.704 62.0049C154.405 62.0049 155.56 63.4268 155.56 65.5723C155.56 67.7178 154.405 69.1396 152.716 69.1396C151.459 69.1396 150.888 68.3525 150.609 67.7559H150.545V71.5898H149.669ZM150.533 65.5596C150.533 67.1973 151.282 68.3652 152.602 68.3652C153.948 68.3652 154.697 67.1338 154.697 65.5596C154.697 63.998 153.96 62.792 152.602 62.792C151.269 62.792 150.533 63.9346 150.533 65.5596ZM156.676 71.5898V62.1064H157.514V63.3887H157.615C157.894 62.8047 158.44 62.0049 159.71 62.0049C161.411 62.0049 162.566 63.4268 162.566 65.5723C162.566 67.7178 161.411 69.1396 159.723 69.1396C158.466 69.1396 157.894 68.3525 157.615 67.7559H157.552V71.5898H156.676ZM157.539 65.5596C157.539 67.1973 158.288 68.3652 159.608 68.3652C160.954 68.3652 161.703 67.1338 161.703 65.5596C161.703 63.998 160.967 62.792 159.608 62.792C158.275 62.792 157.539 63.9346 157.539 65.5596ZM164.558 59.8086V69H163.682V59.8086H164.558ZM168.835 69.1396C166.892 69.1396 165.674 67.6924 165.674 65.5977C165.674 63.5029 166.918 62.0049 168.708 62.0049C170.206 62.0049 171.653 63.0713 171.653 65.4072V65.8135H166.537C166.575 67.3687 167.457 68.3652 168.835 68.3652C169.787 68.3652 170.345 67.8701 170.587 67.4385H171.513C171.209 68.3906 170.231 69.1396 168.835 69.1396ZM166.55 65.0645H170.764C170.764 63.7695 169.927 62.792 168.72 62.792C167.47 62.792 166.619 63.8203 166.55 65.0645Z" fill="white"/>
<path d="M144.874 86.1678C144.193 86.1678 143.517 86.0792 142.846 85.9021C142.184 85.7157 141.615 85.4546 141.14 85.119L142.035 83.385C142.408 83.6553 142.837 83.8698 143.321 84.0282C143.815 84.1867 144.314 84.266 144.818 84.266C145.386 84.266 145.834 84.1541 146.16 83.9304C146.486 83.7066 146.65 83.3943 146.65 82.9934C146.65 82.7417 146.584 82.518 146.454 82.3222C146.323 82.1264 146.09 81.9772 145.755 81.8747C145.428 81.7721 144.967 81.7209 144.37 81.7209H141.867L142.37 76.2111H148.342V78.0291H143.182L144.356 76.9942L144.007 80.9238L142.832 79.8889H144.902C145.871 79.8889 146.65 80.0241 147.237 80.2945C147.834 80.5555 148.267 80.9144 148.537 81.3713C148.808 81.8281 148.943 82.3455 148.943 82.9235C148.943 83.5015 148.798 84.0376 148.509 84.5317C148.22 85.0165 147.773 85.4127 147.167 85.7203C146.57 86.0186 145.806 86.1678 144.874 86.1678ZM152.968 86.1678C152.288 86.1678 151.612 86.0792 150.941 85.9021C150.269 85.7157 149.701 85.4546 149.234 85.119L150.115 83.385C150.488 83.6553 150.922 83.8698 151.416 84.0282C151.91 84.1867 152.409 84.266 152.912 84.266C153.481 84.266 153.928 84.1541 154.255 83.9304C154.581 83.7066 154.744 83.399 154.744 83.0074C154.744 82.6345 154.6 82.3408 154.311 82.1264C154.022 81.912 153.556 81.8048 152.912 81.8048H151.877V80.3085L154.604 77.218L154.856 78.0291H149.724V76.2111H156.576V77.6795L153.863 80.7699L152.717 80.1127H153.374C154.576 80.1127 155.485 80.383 156.101 80.9238C156.716 81.4645 157.024 82.159 157.024 83.0074C157.024 83.5574 156.879 84.0749 156.59 84.5596C156.301 85.0351 155.858 85.422 155.262 85.7203C154.665 86.0186 153.9 86.1678 152.968 86.1678ZM159.356 86.1119C158.983 86.1119 158.662 85.986 158.391 85.7343C158.13 85.4733 158 85.1423 158 84.7414C158 84.3406 158.13 84.0189 158.391 83.7765C158.662 83.5248 158.983 83.399 159.356 83.399C159.738 83.399 160.06 83.5248 160.321 83.7765C160.582 84.0189 160.713 84.3406 160.713 84.7414C160.713 85.1423 160.582 85.4733 160.321 85.7343C160.06 85.986 159.738 86.1119 159.356 86.1119ZM161.782 86V84.5317L165.558 80.9657C165.856 80.6954 166.075 80.453 166.215 80.2385C166.355 80.0241 166.448 79.8283 166.495 79.6512C166.551 79.4741 166.579 79.3109 166.579 79.1618C166.579 78.7702 166.444 78.4719 166.173 78.2668C165.912 78.0524 165.525 77.9451 165.012 77.9451C164.602 77.9451 164.22 78.0244 163.866 78.1829C163.521 78.3414 163.227 78.5884 162.985 78.924L161.335 77.8612C161.708 77.3019 162.23 76.859 162.901 76.5328C163.572 76.2065 164.346 76.0433 165.222 76.0433C165.949 76.0433 166.583 76.1645 167.124 76.4069C167.674 76.64 168.098 76.9709 168.397 77.3998C168.704 77.8286 168.858 78.3414 168.858 78.938C168.858 79.255 168.816 79.572 168.732 79.8889C168.658 80.1966 168.499 80.5229 168.257 80.8678C168.024 81.2128 167.679 81.5997 167.222 82.0285L164.09 84.9792L163.656 84.1541H169.18V86H161.782ZM170.777 86L174.842 80.0473H175.675L171.61 86H170.777ZM171.27 83.2533C170.992 83.2533 170.745 83.1852 170.53 83.0492C170.315 82.9131 170.147 82.7232 170.028 82.4794C169.909 82.2356 169.85 81.9493 169.85 81.6205C169.85 81.2917 169.909 81.0054 170.028 80.7616C170.147 80.5178 170.315 80.3279 170.53 80.1919C170.745 80.0558 170.992 79.9878 171.27 79.9878C171.559 79.9878 171.808 80.0558 172.018 80.1919C172.234 80.3279 172.401 80.5178 172.52 80.7616C172.639 81.0054 172.699 81.2917 172.699 81.6205C172.699 81.9493 172.639 82.2356 172.52 82.4794C172.401 82.7232 172.234 82.9131 172.018 83.0492C171.808 83.1852 171.559 83.2533 171.27 83.2533ZM171.278 82.658C171.505 82.658 171.681 82.5701 171.806 82.3944C171.936 82.2129 172.001 81.955 172.001 81.6205C172.001 81.286 171.936 81.0309 171.806 80.8552C171.681 80.6738 171.505 80.583 171.278 80.583C171.052 80.583 170.87 80.6738 170.734 80.8552C170.604 81.0366 170.539 81.2917 170.539 81.6205C170.539 81.9493 170.604 82.2044 170.734 82.3859C170.87 82.5673 171.052 82.658 171.278 82.658ZM175.173 86.0595C174.895 86.0595 174.649 85.9915 174.433 85.8554C174.218 85.7194 174.051 85.5295 173.932 85.2857C173.813 85.0419 173.753 84.7556 173.753 84.4268C173.753 84.098 173.813 83.8117 173.932 83.5679C174.051 83.3241 174.218 83.1342 174.433 82.9981C174.649 82.8621 174.895 82.794 175.173 82.794C175.462 82.794 175.712 82.8621 175.921 82.9981C176.137 83.1342 176.304 83.3241 176.423 83.5679C176.542 83.8117 176.602 84.098 176.602 84.4268C176.602 84.7556 176.542 85.0419 176.423 85.2857C176.304 85.5295 176.137 85.7194 175.921 85.8554C175.712 85.9915 175.462 86.0595 175.173 86.0595ZM175.173 85.4643C175.4 85.4643 175.579 85.3735 175.709 85.1921C175.839 85.0107 175.904 84.7556 175.904 84.4268C175.904 84.098 175.839 83.8429 175.709 83.6614C175.579 83.48 175.4 83.3893 175.173 83.3893C174.952 83.3893 174.773 83.48 174.637 83.6614C174.507 83.8372 174.442 84.0923 174.442 84.4268C174.442 84.7613 174.507 85.0192 174.637 85.2006C174.773 85.3764 174.952 85.4643 175.173 85.4643Z" fill="white"/>
<path d="M166.77 92.9881L162.111 92.3577L155.047 92.5649L161.406 98.9329L166.77 92.9881Z" fill="#1E1E1E"/>
<defs>
<filter id="filter0_d_544_52" x="129.168" y="51.1682" width="66.3273" height="50.3273" filterUnits="userSpaceOnUse" color-interpolation-filters="sRGB">
<feFlood flood-opacity="0" result="BackgroundImageFix"/>
<feColorMatrix in="SourceAlpha" type="matrix" values="0 0 0 0 0 0 0 0 0 0 0 0 0 0 0 0 0 0 127 0" result="hardAlpha"/>
<feOffset dx="2.83183" dy="2.83183"/>
<feGaussianBlur stdDeviation="2.83183"/>
<feComposite in2="hardAlpha" operator="out"/>
<feColorMatrix type="matrix" values="0 0 0 0 0 0 0 0 0 0 0 0 0 0 0 0 0 0 0.12 0"/>
<feBlend mode="normal" in2="BackgroundImageFix" result="effect1_dropShadow_544_52"/>
<feBlend mode="normal" in="SourceGraphic" in2="effect1_dropShadow_544_52" result="shape"/>
</filter>
</defs>
</svg>
