<svg width="440" height="194" viewBox="0 0 440 194" fill="none" xmlns="http://www.w3.org/2000/svg">
<line opacity="0.6" x1="31.5" y1="140.5" x2="439.5" y2="140.5" stroke="#E0E4EC" stroke-linecap="round"/>
<line opacity="0.6" x1="31.5" y1="170.5" x2="439.5" y2="170.5" stroke="#B5B5B5" stroke-linecap="round"/>
<path d="M17.2168 174.127C15.249 174.127 14.1064 172.388 14.1064 169.404C14.1064 166.434 15.2617 164.682 17.2168 164.682C19.1592 164.682 20.3145 166.434 20.3145 169.404C20.3145 172.388 19.1719 174.127 17.2168 174.127ZM17.2168 173.314C18.6133 173.314 19.4385 171.893 19.4385 169.404C19.4385 166.916 18.6006 165.481 17.2168 165.481C15.8203 165.481 14.9951 166.916 14.9951 169.404C14.9951 171.893 15.8203 173.314 17.2168 173.314Z" fill="#727272"/>
<line opacity="0.6" x1="31.5" y1="110.5" x2="439.5" y2="110.5" stroke="#E0E4EC" stroke-linecap="round"/>
<line opacity="0.6" x1="31.5" y1="80.5" x2="439.5" y2="80.5" stroke="#E0E4EC" stroke-linecap="round"/>
<path d="M9.57422 114.127C7.96191 114.127 6.75586 113.111 6.71777 111.689H7.59375C7.64453 112.629 8.48242 113.327 9.57422 113.327C10.8564 113.327 11.7832 112.362 11.7705 111.105C11.7705 109.785 10.793 108.871 9.51074 108.858C8.73633 108.858 8.10156 109.112 7.7334 109.709H6.83203L7.4668 104.809H12.2529V105.621H8.22852L7.83496 108.655H7.91113C8.31738 108.274 8.97754 108.046 9.66309 108.046C11.3516 108.046 12.6592 109.303 12.6592 111.093C12.6592 112.845 11.3643 114.127 9.57422 114.127ZM17.2168 114.127C15.249 114.127 14.1064 112.388 14.1064 109.404C14.1064 106.434 15.2617 104.682 17.2168 104.682C19.1592 104.682 20.3145 106.434 20.3145 109.404C20.3145 112.388 19.1719 114.127 17.2168 114.127ZM17.2168 113.314C18.6133 113.314 19.4385 111.893 19.4385 109.404C19.4385 106.916 18.6006 105.481 17.2168 105.481C15.8203 105.481 14.9951 106.916 14.9951 109.404C14.9951 111.893 15.8203 113.314 17.2168 113.314Z" fill="#727272"/>
<line opacity="0.6" x1="31.5" y1="50.5" x2="439.5" y2="50.5" stroke="#E0E4EC" stroke-linecap="round"/>
<path d="M4.19141 45.8086V55H3.27734V46.748H3.22656L1.05566 48.1826V47.2559L3.25195 45.8086H4.19141ZM9.6377 55.127C7.66992 55.127 6.52734 53.3877 6.52734 50.4043C6.52734 47.4336 7.68262 45.6816 9.6377 45.6816C11.5801 45.6816 12.7354 47.4336 12.7354 50.4043C12.7354 53.3877 11.5928 55.127 9.6377 55.127ZM9.6377 54.3145C11.0342 54.3145 11.8594 52.8926 11.8594 50.4043C11.8594 47.916 11.0215 46.4814 9.6377 46.4814C8.24121 46.4814 7.41602 47.916 7.41602 50.4043C7.41602 52.8926 8.24121 54.3145 9.6377 54.3145ZM17.2168 55.127C15.249 55.127 14.1064 53.3877 14.1064 50.4043C14.1064 47.4336 15.2617 45.6816 17.2168 45.6816C19.1592 45.6816 20.3145 47.4336 20.3145 50.4043C20.3145 53.3877 19.1719 55.127 17.2168 55.127ZM17.2168 54.3145C18.6133 54.3145 19.4385 52.8926 19.4385 50.4043C19.4385 47.916 18.6006 46.4814 17.2168 46.4814C15.8203 46.4814 14.9951 47.916 14.9951 50.4043C14.9951 52.8926 15.8203 54.3145 17.2168 54.3145Z" fill="#727272"/>
<path d="M74.3691 177.415V178.228C74.3691 179.097 74.3691 180.145 74.0518 181.579H75.7529V182.252H65.4951V181.579H73.2393C73.5693 180.132 73.5693 179.097 73.5693 178.228V178.088H66.8154V177.415H74.3691ZM74.4326 183.902V187.825H66.7773V183.902H74.4326ZM67.5645 184.55V187.165H73.6455V184.55H67.5645ZM86.9375 182.112V182.772H84.2842V184.385C85.1729 184.715 85.668 185.261 85.668 185.997C85.668 187.254 84.2334 187.965 81.834 187.978C79.4092 187.965 77.9746 187.254 77.9746 185.997C77.9746 185.248 78.4824 184.696 79.4092 184.372V182.772H76.7305V182.112H86.9375ZM81.834 184.042C82.4497 184.042 83.002 184.086 83.4844 184.169V182.772H80.209V184.169C80.6851 184.086 81.231 184.042 81.834 184.042ZM81.834 184.664C79.9551 184.677 78.7871 185.172 78.7871 185.997C78.7871 186.835 79.9551 187.317 81.834 187.317C83.6875 187.317 84.8682 186.835 84.8682 185.997C84.8682 185.172 83.6875 184.677 81.834 184.664ZM81.8213 177.021C84.2588 177.021 85.7441 177.783 85.7441 179.104C85.7441 180.411 84.2588 181.173 81.8213 181.16C79.3838 181.173 77.8984 180.411 77.8984 179.104C77.8984 177.783 79.3838 177.021 81.8213 177.021ZM81.8213 177.682C79.9297 177.682 78.7109 178.215 78.7236 179.104C78.7109 179.992 79.9297 180.525 81.8213 180.525C83.7002 180.525 84.9316 179.992 84.9316 179.104C84.9316 178.215 83.7002 177.682 81.8213 177.682Z" fill="#727272"/>
<path d="M135.728 183.217V183.89H132.935V187.99H132.135V183.89H129.062V187.99H128.237V183.89H125.482V183.217H135.728ZM130.586 177.263C132.922 177.263 134.483 178.202 134.483 179.688C134.483 181.16 132.922 182.087 130.586 182.087C128.25 182.087 126.688 181.16 126.688 179.688C126.688 178.202 128.25 177.263 130.586 177.263ZM130.586 177.923C128.758 177.923 127.501 178.634 127.501 179.688C127.501 180.741 128.758 181.427 130.586 181.427C132.401 181.427 133.671 180.741 133.671 179.688C133.671 178.634 132.401 177.923 130.586 177.923ZM146.938 182.785V183.445H136.718V182.785H141.428V181.528H138.102V177.123H145.643V177.796H138.914V178.989H145.325V179.611H138.914V180.881H145.693V181.528H142.228V182.785H146.938ZM141.834 184.397C144.284 184.397 145.668 185.02 145.668 186.175C145.668 187.343 144.284 187.952 141.834 187.952C139.358 187.952 137.975 187.343 137.975 186.175C137.975 185.02 139.358 184.397 141.834 184.397ZM141.834 185.02C139.904 185.02 138.774 185.451 138.787 186.175C138.774 186.924 139.904 187.33 141.834 187.317C143.738 187.33 144.868 186.924 144.868 186.175C144.868 185.451 143.738 185.02 141.834 185.02Z" fill="#727272"/>
<path d="M199.029 176.793V187.99H198.255V176.793H199.029ZM196.77 177.085V187.381H196.008V181.554H193.989V180.881H196.008V177.085H196.77ZM192.707 180.03C192.694 182.011 193.672 183.953 195.183 184.829L194.688 185.438C193.558 184.753 192.713 183.483 192.326 181.973C191.926 183.598 191.057 184.975 189.901 185.692L189.394 185.096C190.917 184.182 191.933 182.125 191.933 180.03V178.837H189.66V178.164H194.865V178.837H192.707V180.03ZM210.988 185.819V186.505H200.73V185.819H205.453V183.014H206.253V185.819H210.988ZM206.253 179.002C206.253 180.855 208.729 182.404 210.468 182.696L210.125 183.344C208.525 183.007 206.558 181.871 205.859 180.259C205.136 181.884 203.181 183.033 201.606 183.382L201.264 182.734C202.978 182.43 205.428 180.855 205.428 179.002V178.558H201.581V177.859H210.112V178.558H206.253V179.002Z" fill="#727272"/>
<path d="M260.369 177.339V178.139C260.369 178.97 260.369 179.999 260.077 181.389H261.753V182.062H256.992V184.283H260.458V187.99H259.646V184.943H252.562V184.283H256.205V182.062H251.495V181.389H259.277C259.569 179.973 259.569 178.964 259.569 178.139V178.012H252.815V177.339H260.369ZM267.885 183.89C270.17 183.89 271.541 184.626 271.541 185.921C271.541 187.216 270.17 187.965 267.885 187.978C265.6 187.965 264.203 187.216 264.216 185.921C264.203 184.626 265.6 183.89 267.885 183.89ZM267.885 184.537C266.12 184.537 264.99 185.07 265.003 185.921C264.99 186.784 266.12 187.305 267.885 187.305C269.649 187.305 270.767 186.784 270.767 185.921C270.767 185.07 269.649 184.537 267.885 184.537ZM271.452 176.793V179.675H273.179V180.373H271.452V183.572H270.652V176.793H271.452ZM264.038 177.479V179.294H267.618V177.479H268.405V182.62H263.251V177.479H264.038ZM264.038 181.947H267.618V179.941H264.038V181.947Z" fill="#727272"/>
<path d="M317.561 183.89C319.947 183.89 321.471 184.651 321.483 185.934C321.471 187.203 319.947 187.952 317.561 187.952C315.174 187.952 313.663 187.203 313.663 185.934C313.663 184.651 315.174 183.89 317.561 183.89ZM317.561 184.524C315.694 184.524 314.45 185.07 314.463 185.934C314.45 186.771 315.694 187.305 317.561 187.305C319.427 187.305 320.671 186.771 320.671 185.934C320.671 185.07 319.427 184.524 317.561 184.524ZM321.369 177.377V178.342C321.369 179.256 321.369 180.145 321.064 181.3L320.277 181.211C320.582 180.056 320.582 179.218 320.582 178.342V178.05H313.727V177.377H321.369ZM322.702 182.087V182.747H312.495V182.087H316.85V179.853H317.637V182.087H322.702ZM328.796 183.89C331.183 183.89 332.706 184.651 332.719 185.934C332.706 187.203 331.183 187.952 328.796 187.952C326.409 187.952 324.898 187.203 324.898 185.934C324.898 184.651 326.409 183.89 328.796 183.89ZM328.796 184.524C326.93 184.524 325.686 185.07 325.698 185.934C325.686 186.771 326.93 187.305 328.796 187.305C330.662 187.305 331.906 186.771 331.906 185.934C331.906 185.07 330.662 184.524 328.796 184.524ZM332.604 177.377V178.342C332.604 179.256 332.604 180.145 332.3 181.3L331.513 181.211C331.817 180.056 331.817 179.218 331.817 178.342V178.05H324.962V177.377H332.604ZM333.938 182.087V182.747H323.73V182.087H328.085V179.853H328.872V182.087H333.938Z" fill="#727272"/>
<path d="M378.164 177.631C379.929 177.631 381.147 178.685 381.16 180.221C381.147 181.77 379.929 182.811 378.164 182.811C376.412 182.811 375.168 181.77 375.168 180.221C375.168 178.685 376.412 177.631 378.164 177.631ZM378.164 178.342C376.882 178.342 375.942 179.129 375.955 180.221C375.942 181.312 376.882 182.112 378.164 182.1C379.446 182.112 380.373 181.312 380.373 180.221C380.373 179.129 379.446 178.342 378.164 178.342ZM383.61 176.793V188.003H382.811V176.793H383.61ZM374.559 184.766C376.653 184.778 379.522 184.766 382.036 184.385L382.1 184.994C379.51 185.477 376.717 185.477 374.686 185.477L374.559 184.766ZM395.988 185.87V186.556H385.73V185.87H388.701V183.61H387.051V180.259H393.868V178.329H387.013V177.656H394.655V180.932H387.838V182.938H394.922V183.61H393.106V185.87H395.988ZM389.488 185.87H392.319V183.61H389.488V185.87Z" fill="#727272"/>
<rect x="69" y="51" width="16" height="119" rx="4" fill="#EDEDED" fill-opacity="0.88"/>
<rect x="130" y="51" width="16" height="119" rx="4" fill="#EDEDED" fill-opacity="0.88"/>
<rect x="191" y="51" width="16" height="119" rx="4" fill="#EDEDED" fill-opacity="0.88"/>
<rect x="252" y="51" width="16" height="118" rx="4" fill="#EDEDED" fill-opacity="0.88"/>
<rect x="69.5" y="87.5" width="15" height="82" rx="3.5" fill="#FF7901" stroke="#F0523B"/>
<path d="M130.5 108C130.5 106.067 132.067 104.5 134 104.5H142C143.933 104.5 145.5 106.067 145.5 108V166C145.5 167.933 143.933 169.5 142 169.5H134C132.067 169.5 130.5 167.933 130.5 166V108Z" fill="#FF7901" stroke="#E56D03"/>
<path d="M191.5 97C191.5 95.067 193.067 93.5 195 93.5H203C204.933 93.5 206.5 95.067 206.5 97V166C206.5 167.933 204.933 169.5 203 169.5H195C193.067 169.5 191.5 167.933 191.5 166V97Z" fill="#FF7901" stroke="#E56D03"/>
<path d="M252.5 124C252.5 122.067 254.067 120.5 256 120.5H264C265.933 120.5 267.5 122.067 267.5 124V166C267.5 167.933 265.933 169.5 264 169.5H256C254.067 169.5 252.5 167.933 252.5 166V124Z" fill="#FF7901" stroke="#E56D03"/>
<rect x="313" y="39" width="16" height="130" rx="4" fill="#F3F3F3" fill-opacity="0.88"/>
<path d="M313.5 48C313.5 46.067 315.067 44.5 317 44.5H325C326.933 44.5 328.5 46.067 328.5 48V166C328.5 167.933 326.933 169.5 325 169.5H317C315.067 169.5 313.5 167.933 313.5 166V48Z" fill="#FF7901" stroke="#E56D03"/>
<rect x="374" y="51" width="16" height="118" rx="4" fill="#EDEDED" fill-opacity="0.88"/>
<path d="M374.5 96C374.5 94.067 376.067 92.5 378 92.5H386C387.933 92.5 389.5 94.067 389.5 96V166C389.5 167.933 387.933 169.5 386 169.5H378C376.067 169.5 374.5 167.933 374.5 166V96Z" fill="#FF7901" stroke="#E56D03"/>
<g filter="url(#filter0_d_1057_21264)">
<rect x="258" y="3" width="124" height="32" rx="6" fill="#1E1E1E"/>
<rect x="258.446" y="3.44557" width="123.109" height="31.1089" rx="5.55443" stroke="black" stroke-width="0.891145"/>
</g>
<path d="M275.561 20.8896C277.947 20.8896 279.471 21.6514 279.483 22.9336C279.471 24.2031 277.947 24.9521 275.561 24.9521C273.174 24.9521 271.663 24.2031 271.663 22.9336C271.663 21.6514 273.174 20.8896 275.561 20.8896ZM275.561 21.5244C273.694 21.5244 272.45 22.0703 272.463 22.9336C272.45 23.7715 273.694 24.3047 275.561 24.3047C277.427 24.3047 278.671 23.7715 278.671 22.9336C278.671 22.0703 277.427 21.5244 275.561 21.5244ZM279.369 14.377V15.3418C279.369 16.2559 279.369 17.1445 279.064 18.2998L278.277 18.2109C278.582 17.0557 278.582 16.2178 278.582 15.3418V15.0498H271.727V14.377H279.369ZM280.702 19.0869V19.7471H270.495V19.0869H274.85V16.8525H275.637V19.0869H280.702ZM286.401 20.8896C288.788 20.8896 290.311 21.6514 290.324 22.9336C290.311 24.2031 288.788 24.9521 286.401 24.9521C284.014 24.9521 282.503 24.2031 282.503 22.9336C282.503 21.6514 284.014 20.8896 286.401 20.8896ZM286.401 21.5244C284.535 21.5244 283.29 22.0703 283.303 22.9336C283.29 23.7715 284.535 24.3047 286.401 24.3047C288.267 24.3047 289.511 23.7715 289.511 22.9336C289.511 22.0703 288.267 21.5244 286.401 21.5244ZM290.209 14.377V15.3418C290.209 16.2559 290.209 17.1445 289.905 18.2998L289.118 18.2109C289.422 17.0557 289.422 16.2178 289.422 15.3418V15.0498H282.567V14.377H290.209ZM291.542 19.0869V19.7471H281.335V19.0869H285.69V16.8525H286.477V19.0869H291.542ZM304.463 13.793V24.9902H303.676V13.793H304.463ZM302.203 14.0723V24.3809H301.429V18.8076H298.826V18.1221H301.429V14.0723H302.203ZM299.588 15.2021V15.875H296.16V21.5371C297.925 21.5371 298.972 21.4673 300.223 21.1943L300.312 21.8799C299.004 22.1592 297.925 22.21 296.072 22.2227H295.386V15.2021H299.588ZM314.948 13.793V25.0029H314.148V13.793H314.948ZM309.032 14.6816C310.682 14.6816 311.863 16.1924 311.863 18.5537C311.863 20.915 310.682 22.4258 309.032 22.4258C307.369 22.4258 306.201 20.915 306.201 18.5537C306.201 16.1924 307.369 14.6816 309.032 14.6816ZM309.032 15.3926C307.826 15.3926 306.975 16.6875 306.975 18.5537C306.975 20.4326 307.826 21.7148 309.032 21.7148C310.238 21.7148 311.076 20.4326 311.076 18.5537C311.076 16.6875 310.238 15.3926 309.032 15.3926ZM325.826 13.793V25.0029H325.039V18.7822H322.526V18.1094H325.039V13.793H325.826ZM317.955 21.5625C320.177 21.5752 321.51 21.5117 323.071 21.207L323.173 21.8926C321.548 22.1719 320.202 22.248 317.955 22.248H317.117V14.8467H322.348V15.5195H317.93V17.9951H321.815V18.668H317.93V21.5625H317.955Z" fill="white"/>
<path d="M337.922 24.1678C337.027 24.1678 336.249 23.9814 335.587 23.6084C334.934 23.2355 334.431 22.6902 334.077 21.9723C333.723 21.2545 333.545 20.3688 333.545 19.3153C333.545 18.1873 333.755 17.2317 334.175 16.4486C334.604 15.6655 335.191 15.0688 335.937 14.6586C336.692 14.2484 337.559 14.0433 338.538 14.0433C339.06 14.0433 339.559 14.0992 340.034 14.2111C340.509 14.323 340.92 14.4908 341.265 14.7145L340.426 16.3787C340.155 16.1922 339.866 16.0663 339.559 16.0011C339.251 15.9265 338.929 15.8892 338.594 15.8892C337.745 15.8892 337.074 16.1456 336.58 16.6583C336.086 17.1711 335.839 17.9309 335.839 18.9377C335.839 19.1056 335.839 19.292 335.839 19.4971C335.848 19.7022 335.876 19.9073 335.923 20.1124L335.293 19.5251C335.471 19.1615 335.699 18.8585 335.979 18.6161C336.258 18.3644 336.589 18.1779 336.971 18.0568C337.363 17.9262 337.792 17.861 338.258 17.861C338.892 17.861 339.461 17.9868 339.964 18.2385C340.468 18.4903 340.868 18.8445 341.167 19.3013C341.474 19.7582 341.628 20.2942 341.628 20.9095C341.628 21.5714 341.46 22.1494 341.125 22.6435C340.798 23.1283 340.356 23.5059 339.796 23.7763C339.246 24.0373 338.622 24.1678 337.922 24.1678ZM337.797 22.4757C338.114 22.4757 338.393 22.4198 338.636 22.3079C338.887 22.1867 339.083 22.0143 339.223 21.7905C339.363 21.5668 339.433 21.3104 339.433 21.0214C339.433 20.5739 339.279 20.2196 338.971 19.9586C338.673 19.6882 338.272 19.5531 337.769 19.5531C337.433 19.5531 337.139 19.6183 336.888 19.7488C336.636 19.87 336.435 20.0425 336.286 20.2662C336.146 20.4807 336.077 20.7324 336.077 21.0214C336.077 21.3011 336.146 21.5528 336.286 21.7765C336.426 21.9909 336.622 22.1634 336.874 22.2939C337.125 22.4151 337.433 22.4757 337.797 22.4757ZM345.778 24.1678C345.097 24.1678 344.421 24.0792 343.75 23.9021C343.088 23.7157 342.519 23.4546 342.044 23.119L342.939 21.385C343.312 21.6553 343.741 21.8698 344.225 22.0282C344.719 22.1867 345.218 22.266 345.722 22.266C346.29 22.266 346.738 22.1541 347.064 21.9304C347.39 21.7066 347.554 21.3943 347.554 20.9934C347.554 20.7417 347.488 20.518 347.358 20.3222C347.227 20.1264 346.994 19.9772 346.659 19.8747C346.332 19.7721 345.871 19.7209 345.274 19.7209H342.771L343.274 14.2111H349.246V16.0291H344.085L345.26 14.9942L344.911 18.9238L343.736 17.8889H345.806C346.775 17.8889 347.554 18.0241 348.141 18.2945C348.738 18.5555 349.171 18.9144 349.441 19.3713C349.712 19.8281 349.847 20.3455 349.847 20.9235C349.847 21.5015 349.702 22.0376 349.413 22.5317C349.124 23.0165 348.677 23.4127 348.071 23.7203C347.474 24.0186 346.71 24.1678 345.778 24.1678ZM352.053 24.1119C351.68 24.1119 351.358 23.986 351.088 23.7343C350.827 23.4733 350.696 23.1423 350.696 22.7414C350.696 22.3406 350.827 22.0189 351.088 21.7765C351.358 21.5248 351.68 21.399 352.053 21.399C352.435 21.399 352.756 21.5248 353.017 21.7765C353.279 22.0189 353.409 22.3406 353.409 22.7414C353.409 23.1423 353.279 23.4733 353.017 23.7343C352.756 23.986 352.435 24.1119 352.053 24.1119ZM354.479 24V22.5317L358.254 18.9657C358.553 18.6954 358.772 18.453 358.912 18.2385C359.051 18.0241 359.145 17.8283 359.191 17.6512C359.247 17.4741 359.275 17.3109 359.275 17.1618C359.275 16.7702 359.14 16.4719 358.87 16.2668C358.609 16.0524 358.222 15.9451 357.709 15.9451C357.299 15.9451 356.917 16.0244 356.562 16.1829C356.217 16.3414 355.924 16.5884 355.681 16.924L354.031 15.8612C354.404 15.3019 354.926 14.859 355.597 14.5328C356.269 14.2065 357.042 14.0433 357.919 14.0433C358.646 14.0433 359.28 14.1645 359.821 14.4069C360.371 14.64 360.795 14.9709 361.093 15.3998C361.401 15.8286 361.555 16.3414 361.555 16.938C361.555 17.255 361.513 17.572 361.429 17.8889C361.354 18.1966 361.196 18.5229 360.953 18.8678C360.72 19.2128 360.375 19.5997 359.918 20.0285L356.786 22.9792L356.352 22.1541H361.876V24H354.479ZM363.473 24L367.538 18.0473H368.371L364.307 24H363.473ZM363.966 21.2533C363.689 21.2533 363.442 21.1852 363.227 21.0492C363.011 20.9131 362.844 20.7232 362.725 20.4794C362.606 20.2356 362.546 19.9493 362.546 19.6205C362.546 19.2917 362.606 19.0054 362.725 18.7616C362.844 18.5178 363.011 18.3279 363.227 18.1919C363.442 18.0558 363.689 17.9878 363.966 17.9878C364.255 17.9878 364.505 18.0558 364.715 18.1919C364.93 18.3279 365.097 18.5178 365.216 18.7616C365.335 19.0054 365.395 19.2917 365.395 19.6205C365.395 19.9493 365.335 20.2356 365.216 20.4794C365.097 20.7232 364.93 20.9131 364.715 21.0492C364.505 21.1852 364.255 21.2533 363.966 21.2533ZM363.975 20.658C364.202 20.658 364.377 20.5701 364.502 20.3944C364.632 20.2129 364.698 19.955 364.698 19.6205C364.698 19.286 364.632 19.0309 364.502 18.8552C364.377 18.6738 364.202 18.583 363.975 18.583C363.748 18.583 363.567 18.6738 363.431 18.8552C363.3 19.0366 363.235 19.2917 363.235 19.6205C363.235 19.9493 363.3 20.2044 363.431 20.3859C363.567 20.5673 363.748 20.658 363.975 20.658ZM367.87 24.0595C367.592 24.0595 367.345 23.9915 367.13 23.8554C366.914 23.7194 366.747 23.5295 366.628 23.2857C366.509 23.0419 366.449 22.7556 366.449 22.4268C366.449 22.098 366.509 21.8117 366.628 21.5679C366.747 21.3241 366.914 21.1342 367.13 20.9981C367.345 20.8621 367.592 20.794 367.87 20.794C368.159 20.794 368.408 20.8621 368.618 20.9981C368.833 21.1342 369.001 21.3241 369.12 21.5679C369.239 21.8117 369.298 22.098 369.298 22.4268C369.298 22.7556 369.239 23.0419 369.12 23.2857C369.001 23.5295 368.833 23.7194 368.618 23.8554C368.408 23.9915 368.159 24.0595 367.87 24.0595ZM367.87 23.4643C368.096 23.4643 368.275 23.3735 368.405 23.1921C368.536 23.0107 368.601 22.7556 368.601 22.4268C368.601 22.098 368.536 21.8429 368.405 21.6614C368.275 21.48 368.096 21.3893 367.87 21.3893C367.649 21.3893 367.47 21.48 367.334 21.6614C367.203 21.8372 367.138 22.0923 367.138 22.4268C367.138 22.7613 367.203 23.0192 367.334 23.2006C367.47 23.3764 367.649 23.4643 367.87 23.4643Z" fill="white"/>
<path d="M325.662 34.6668L321.003 34.0364L313.939 34.2437L320.298 40.6117L325.662 34.6668Z" fill="#1E1E1E"/>
<defs>
<filter id="filter0_d_1057_21264" x="255.168" y="0.168167" width="135.327" height="43.3273" filterUnits="userSpaceOnUse" color-interpolation-filters="sRGB">
<feFlood flood-opacity="0" result="BackgroundImageFix"/>
<feColorMatrix in="SourceAlpha" type="matrix" values="0 0 0 0 0 0 0 0 0 0 0 0 0 0 0 0 0 0 127 0" result="hardAlpha"/>
<feOffset dx="2.83183" dy="2.83183"/>
<feGaussianBlur stdDeviation="2.83183"/>
<feComposite in2="hardAlpha" operator="out"/>
<feColorMatrix type="matrix" values="0 0 0 0 0 0 0 0 0 0 0 0 0 0 0 0 0 0 0.12 0"/>
<feBlend mode="normal" in2="BackgroundImageFix" result="effect1_dropShadow_1057_21264"/>
<feBlend mode="normal" in="SourceGraphic" in2="effect1_dropShadow_1057_21264" result="shape"/>
</filter>
</defs>
</svg>
