<svg width="214" height="127" viewBox="0 0 214 127" fill="none" xmlns="http://www.w3.org/2000/svg">
<rect x="153" width="5" height="5" rx="1.12689" fill="#D23D5E"/>
<rect x="139" width="5" height="5" rx="1.12689" fill="#F29E92"/>
<rect x="194" width="5" height="5" rx="1.12689" fill="#DB4D00"/>
<rect x="180" width="5" height="5" rx="1.12689" fill="#6A6A6A"/>
<rect x="167" width="5" height="5" rx="1.12689" fill="#F987B8"/>
<rect x="207" width="5" height="5" rx="1.12689" fill="#FF6513"/>
<path d="M1.40122 30V20.6585H5.33798C6.3344 20.6585 7.21072 20.8543 7.96693 21.2457C8.73204 21.6372 9.32366 22.1843 9.74181 22.8871C10.1688 23.59 10.3824 24.404 10.3824 25.3293C10.3824 26.2545 10.1688 27.0686 9.74181 27.7714C9.32366 28.4742 8.73204 29.0214 7.96693 29.4128C7.21072 29.8043 6.3344 30 5.33798 30H1.40122ZM2.73571 28.839H5.25791C6.03191 28.839 6.69916 28.6922 7.25965 28.3986C7.82903 28.105 8.26941 27.6958 8.5808 27.1709C8.89218 26.6371 9.04787 26.0232 9.04787 25.3293C9.04787 24.6264 8.89218 24.0126 8.5808 23.4877C8.26941 22.9628 7.82903 22.5535 7.25965 22.2599C6.69916 21.9663 6.03191 21.8196 5.25791 21.8196H2.73571V28.839ZM16.2297 30V28.5054L16.163 28.2251V25.6762C16.163 25.1335 16.0029 24.7154 15.6826 24.4218C15.3712 24.1193 14.8997 23.9681 14.268 23.9681C13.8499 23.9681 13.4406 24.0393 13.0403 24.1816C12.64 24.3151 12.3019 24.4974 12.0261 24.7287L11.4923 23.7679C11.857 23.4743 12.293 23.2519 12.8001 23.1007C13.3161 22.9405 13.8543 22.8605 14.4148 22.8605C15.3846 22.8605 16.1319 23.0962 16.6568 23.5677C17.1817 24.0393 17.4441 24.7599 17.4441 25.7296V30H16.2297ZM13.9077 30.0801C13.3828 30.0801 12.9202 29.9911 12.5198 29.8132C12.1284 29.6352 11.8259 29.3906 11.6124 29.0792C11.3989 28.7589 11.2921 28.3986 11.2921 27.9983C11.2921 27.6157 11.3811 27.2687 11.559 26.9574C11.7458 26.646 12.0439 26.3969 12.4531 26.21C12.8713 26.0232 13.4318 25.9298 14.1346 25.9298H16.3765V26.8506H14.188C13.5474 26.8506 13.1159 26.9574 12.8935 27.1709C12.6711 27.3844 12.5599 27.6424 12.5599 27.9449C12.5599 28.2918 12.6978 28.5721 12.9736 28.7856C13.2494 28.9902 13.6319 29.0925 14.1212 29.0925C14.6017 29.0925 15.0198 28.9858 15.3757 28.7723C15.7404 28.5587 16.0029 28.2474 16.163 27.8381L16.4166 28.7189C16.2475 29.137 15.9495 29.4707 15.5225 29.7198C15.0954 29.96 14.5572 30.0801 13.9077 30.0801ZM21.8434 30.0801C21.1316 30.0801 20.58 29.8888 20.1886 29.5062C19.7971 29.1237 19.6014 28.5765 19.6014 27.8648V21.3792H20.8825V27.8114C20.8825 28.194 20.9759 28.4876 21.1628 28.6922C21.3585 28.8968 21.6343 28.9991 21.9902 28.9991C22.3905 28.9991 22.7241 28.8879 22.991 28.6655L23.3914 29.5863C23.1957 29.7553 22.9599 29.8799 22.6841 29.96C22.4172 30.04 22.137 30.0801 21.8434 30.0801ZM18.4004 23.9814V22.9272H22.911V23.9814H18.4004ZM28.9304 30V28.5054L28.8636 28.2251V25.6762C28.8636 25.1335 28.7035 24.7154 28.3832 24.4218C28.0718 24.1193 27.6003 23.9681 26.9687 23.9681C26.5505 23.9681 26.1413 24.0393 25.7409 24.1816C25.3406 24.3151 25.0025 24.4974 24.7267 24.7287L24.1929 23.7679C24.5577 23.4743 24.9936 23.2519 25.5007 23.1007C26.0167 22.9405 26.555 22.8605 27.1155 22.8605C28.0852 22.8605 28.8325 23.0962 29.3574 23.5677C29.8823 24.0393 30.1448 24.7599 30.1448 25.7296V30H28.9304ZM26.6083 30.0801C26.0834 30.0801 25.6208 29.9911 25.2205 29.8132C24.829 29.6352 24.5265 29.3906 24.313 29.0792C24.0995 28.7589 23.9927 28.3986 23.9927 27.9983C23.9927 27.6157 24.0817 27.2687 24.2596 26.9574C24.4465 26.646 24.7445 26.3969 25.1537 26.21C25.5719 26.0232 26.1324 25.9298 26.8352 25.9298H29.0772V26.8506H26.8886C26.248 26.8506 25.8165 26.9574 25.5941 27.1709C25.3717 27.3844 25.2605 27.6424 25.2605 27.9449C25.2605 28.2918 25.3984 28.5721 25.6742 28.7856C25.95 28.9902 26.3326 29.0925 26.8219 29.0925C27.3023 29.0925 27.7204 28.9858 28.0763 28.7723C28.4411 28.5587 28.7035 28.2474 28.8636 27.8381L29.1172 28.7189C28.9482 29.137 28.6501 29.4707 28.2231 29.7198C27.796 29.96 27.2578 30.0801 26.6083 30.0801ZM44.1464 22.8605C44.7158 22.8605 45.2185 22.9717 45.6544 23.1941C46.0903 23.4165 46.4284 23.7546 46.6686 24.2083C46.9177 24.662 47.0423 25.2359 47.0423 25.9298V30H45.7611V26.0766C45.7611 25.3915 45.601 24.8755 45.2807 24.5286C44.9605 24.1816 44.5112 24.0081 43.9329 24.0081C43.5059 24.0081 43.1322 24.0971 42.8119 24.275C42.4916 24.453 42.2425 24.7154 42.0646 25.0624C41.8956 25.4093 41.811 25.8408 41.811 26.3568V30H40.5299V26.0766C40.5299 25.3915 40.3698 24.8755 40.0495 24.5286C39.7381 24.1816 39.2889 24.0081 38.7017 24.0081C38.2835 24.0081 37.9143 24.0971 37.594 24.275C37.2738 24.453 37.0247 24.7154 36.8467 25.0624C36.6688 25.4093 36.5798 25.8408 36.5798 26.3568V30H35.2987V22.9272H36.5265V24.8088L36.3263 24.3284C36.5487 23.8658 36.8912 23.5055 37.3538 23.2475C37.8165 22.9895 38.3547 22.8605 38.9686 22.8605C39.6447 22.8605 40.2274 23.0295 40.7168 23.3676C41.2061 23.6967 41.5264 24.1994 41.6776 24.8755L41.1571 24.662C41.3707 24.1193 41.7443 23.6834 42.2781 23.3542C42.8119 23.025 43.4347 22.8605 44.1464 22.8605ZM53.3897 30V28.5054L53.3229 28.2251V25.6762C53.3229 25.1335 53.1628 24.7154 52.8425 24.4218C52.5311 24.1193 52.0596 23.9681 51.428 23.9681C51.0098 23.9681 50.6006 24.0393 50.2002 24.1816C49.7999 24.3151 49.4618 24.4974 49.186 24.7287L48.6522 23.7679C49.017 23.4743 49.4529 23.2519 49.96 23.1007C50.476 22.9405 51.0143 22.8605 51.5747 22.8605C52.5445 22.8605 53.2918 23.0962 53.8167 23.5677C54.3416 24.0393 54.604 24.7599 54.604 25.7296V30H53.3897ZM51.0676 30.0801C50.5427 30.0801 50.0801 29.9911 49.6798 29.8132C49.2883 29.6352 48.9858 29.3906 48.7723 29.0792C48.5588 28.7589 48.452 28.3986 48.452 27.9983C48.452 27.6157 48.541 27.2687 48.7189 26.9574C48.9058 26.646 49.2038 26.3969 49.613 26.21C50.0312 26.0232 50.5917 25.9298 51.2945 25.9298H53.5365V26.8506H51.3479C50.7073 26.8506 50.2758 26.9574 50.0534 27.1709C49.831 27.3844 49.7198 27.6424 49.7198 27.9449C49.7198 28.2918 49.8577 28.5721 50.1335 28.7856C50.4093 28.9902 50.7918 29.0925 51.2812 29.0925C51.7616 29.0925 52.1797 28.9858 52.5356 28.7723C52.9003 28.5587 53.1628 28.2474 53.3229 27.8381L53.5765 28.7189C53.4074 29.137 53.1094 29.4707 52.6824 29.7198C52.2553 29.96 51.7171 30.0801 51.0676 30.0801ZM60.3244 30.0801C59.7373 30.0801 59.199 29.9466 58.7097 29.6797C58.2293 29.4039 57.8423 28.9991 57.5487 28.4653C57.264 27.9315 57.1217 27.2643 57.1217 26.4636C57.1217 25.6629 57.2595 24.9956 57.5353 24.4619C57.82 23.9281 58.2026 23.5277 58.683 23.2608C59.1723 22.9939 59.7195 22.8605 60.3244 22.8605C61.0184 22.8605 61.6322 23.0117 62.166 23.3142C62.6998 23.6167 63.1224 24.0393 63.4338 24.582C63.7452 25.1158 63.9009 25.743 63.9009 26.4636C63.9009 27.1842 63.7452 27.8159 63.4338 28.3586C63.1224 28.9013 62.6998 29.3239 62.166 29.6263C61.6322 29.9288 61.0184 30.0801 60.3244 30.0801ZM56.5745 32.5889V22.9272H57.8022V24.8355L57.7222 26.4769L57.8556 28.1184V32.5889H56.5745ZM60.2177 28.9591C60.6714 28.9591 61.0762 28.8568 61.4321 28.6522C61.7968 28.4475 62.0815 28.1584 62.2861 27.7847C62.4997 27.4022 62.6064 26.9618 62.6064 26.4636C62.6064 25.9565 62.4997 25.5205 62.2861 25.1558C62.0815 24.7821 61.7968 24.493 61.4321 24.2884C61.0762 24.0837 60.6714 23.9814 60.2177 23.9814C59.7728 23.9814 59.368 24.0837 59.0033 24.2884C58.6474 24.493 58.3627 24.7821 58.1492 25.1558C57.9446 25.5205 57.8423 25.9565 57.8423 26.4636C57.8423 26.9618 57.9446 27.4022 58.1492 27.7847C58.3627 28.1584 58.6474 28.4475 59.0033 28.6522C59.368 28.8568 59.7728 28.9591 60.2177 28.9591Z" fill="#222222"/>
<path d="M27.2803 53H24.8633V45.2227H27.377C29.6436 45.2227 30.9863 46.6836 30.9863 49.1006C30.9863 51.5283 29.6436 53 27.2803 53ZM25.8301 52.1406H27.2158C29.1279 52.1406 30.041 50.9912 30.041 49.1006C30.041 47.2207 29.1279 46.082 27.3125 46.082H25.8301V52.1406ZM32.2268 51.3457C32.2268 50.0029 33.4085 49.7021 34.4182 49.627C34.7888 49.6001 35.7342 49.5518 35.9973 49.541V49.0684C35.9973 48.3271 35.5569 47.8975 34.6761 47.8975C33.9348 47.8975 33.4944 48.2412 33.3655 48.6816H32.3987C32.5169 47.7471 33.43 47.0918 34.719 47.0918C35.4817 47.0918 36.9104 47.3174 36.9104 49.1543V53H35.9973V52.2051H35.9544C35.761 52.6025 35.2239 53.1396 34.2141 53.1396C33.1077 53.1396 32.2268 52.4844 32.2268 51.3457ZM33.1507 51.3887C33.1507 52.001 33.6663 52.3125 34.3753 52.3125C35.4173 52.3125 35.9973 51.6143 35.9973 50.8838V50.293L34.5257 50.4004C33.6878 50.4541 33.1507 50.7549 33.1507 51.3887ZM41.1587 47.167V47.9404H39.9341V51.3242C39.9341 52.0762 40.2994 52.1943 40.6968 52.1943C40.8687 52.1943 41.105 52.1836 41.2447 52.1729V53.0322C41.105 53.0537 40.8687 53.0752 40.6002 53.0752C39.8267 53.0752 38.9996 52.5918 38.9996 51.5605V47.9404H38.1187V47.167H38.9996V45.7705H39.9341V47.167H41.1587ZM42.2918 51.3457C42.2918 50.0029 43.4735 49.7021 44.4832 49.627C44.8538 49.6001 45.7992 49.5518 46.0623 49.541V49.0684C46.0623 48.3271 45.6219 47.8975 44.7411 47.8975C43.9998 47.8975 43.5594 48.2412 43.4305 48.6816H42.4637C42.5819 47.7471 43.495 47.0918 44.784 47.0918C45.5467 47.0918 46.9754 47.3174 46.9754 49.1543V53H46.0623V52.2051H46.0194C45.826 52.6025 45.2889 53.1396 44.2791 53.1396C43.1727 53.1396 42.2918 52.4844 42.2918 51.3457ZM43.2157 51.3887C43.2157 52.001 43.7313 52.3125 44.4403 52.3125C45.4823 52.3125 46.0623 51.6143 46.0623 50.8838V50.293L44.5907 50.4004C43.7528 50.4541 43.2157 50.7549 43.2157 51.3887ZM52.7062 53V53.8486H47.84V53H52.7062ZM55.6117 53.1074C53.8822 53.1074 52.8939 51.6572 52.8939 49.1113C52.8939 46.5869 53.9037 45.1152 55.6117 45.1152C57.3197 45.1152 58.3295 46.5869 58.3295 49.1113C58.3295 51.6572 57.3305 53.1074 55.6117 53.1074ZM55.6117 52.248C56.7289 52.248 57.3842 51.1201 57.3842 49.1113C57.3842 47.1025 56.7289 45.9531 55.6117 45.9531C54.4945 45.9531 53.8285 47.1025 53.8285 49.1113C53.8285 51.1201 54.4838 52.248 55.6117 52.248ZM62.5886 45.2227V53H61.611V46.2324H61.568L59.6774 47.4893V46.5117L61.611 45.2227H62.5886Z" fill="#787486"/>
<circle cx="16.1671" cy="49.1671" r="2.16713" fill="#DC4858"/>
<path d="M27.2803 73H24.8633V65.2227H27.377C29.6436 65.2227 30.9863 66.6836 30.9863 69.1006C30.9863 71.5283 29.6436 73 27.2803 73ZM25.8301 72.1406H27.2158C29.1279 72.1406 30.041 70.9912 30.041 69.1006C30.041 67.2207 29.1279 66.082 27.3125 66.082H25.8301V72.1406ZM32.0068 71.3457C32.0068 70.0029 33.1885 69.7021 34.1982 69.627C34.5688 69.6001 35.5142 69.5518 35.7773 69.541V69.0684C35.7773 68.3271 35.3369 67.8975 34.4561 67.8975C33.7148 67.8975 33.2744 68.2412 33.1455 68.6816H32.1787C32.2969 67.7471 33.21 67.0918 34.499 67.0918C35.2617 67.0918 36.6904 67.3174 36.6904 69.1543V73H35.7773V72.2051H35.7344C35.541 72.6025 35.0039 73.1396 33.9941 73.1396C32.8877 73.1396 32.0068 72.4844 32.0068 71.3457ZM32.9307 71.3887C32.9307 72.001 33.4463 72.3125 34.1553 72.3125C35.1973 72.3125 35.7773 71.6143 35.7773 70.8838V70.293L34.3057 70.4004C33.4678 70.4541 32.9307 70.7549 32.9307 71.3887ZM40.7188 67.167V67.9404H39.4941V71.3242C39.4941 72.0762 39.8594 72.1943 40.2568 72.1943C40.4287 72.1943 40.665 72.1836 40.8047 72.1729V73.0322C40.665 73.0537 40.4287 73.0752 40.1602 73.0752C39.3867 73.0752 38.5596 72.5918 38.5596 71.5605V67.9404H37.6787V67.167H38.5596V65.7705H39.4941V67.167H40.7188ZM41.6318 71.3457C41.6318 70.0029 42.8135 69.7021 43.8232 69.627C44.1938 69.6001 45.1392 69.5518 45.4023 69.541V69.0684C45.4023 68.3271 44.9619 67.8975 44.0811 67.8975C43.3398 67.8975 42.8994 68.2412 42.7705 68.6816H41.8037C41.9219 67.7471 42.835 67.0918 44.124 67.0918C44.8867 67.0918 46.3154 67.3174 46.3154 69.1543V73H45.4023V72.2051H45.3594C45.166 72.6025 44.6289 73.1396 43.6191 73.1396C42.5127 73.1396 41.6318 72.4844 41.6318 71.3457ZM42.5557 71.3887C42.5557 72.001 43.0713 72.3125 43.7803 72.3125C44.8223 72.3125 45.4023 71.6143 45.4023 70.8838V70.293L43.9307 70.4004C43.0928 70.4541 42.5557 70.7549 42.5557 71.3887ZM51.8262 73V73.8486H46.96V73H51.8262ZM54.5117 73.1074C52.7822 73.1074 51.7939 71.6572 51.7939 69.1113C51.7939 66.5869 52.8037 65.1152 54.5117 65.1152C56.2197 65.1152 57.2295 66.5869 57.2295 69.1113C57.2295 71.6572 56.2305 73.1074 54.5117 73.1074ZM54.5117 72.248C55.6289 72.248 56.2842 71.1201 56.2842 69.1113C56.2842 67.1025 55.6289 65.9531 54.5117 65.9531C53.3945 65.9531 52.7285 67.1025 52.7285 69.1113C52.7285 71.1201 53.3838 72.248 54.5117 72.248ZM58.5186 73L58.5078 72.291L61.1611 69.498C62.085 68.5205 62.5254 67.9941 62.5254 67.2744C62.5254 66.4795 61.8486 65.9531 60.9785 65.9531C60.0547 65.9531 59.4639 66.5439 59.4639 67.4141H58.5508C58.54 66.0391 59.6035 65.1152 61.0107 65.1152C62.418 65.1152 63.4277 66.0605 63.4277 67.2744C63.4277 68.1445 63.0195 68.8213 61.6445 70.2393L59.8613 72.0762V72.1406H63.5674V73H58.5186Z" fill="#787486"/>
<circle cx="16.1671" cy="69.1671" r="2.16713" fill="#F98790"/>
<path d="M27.2803 93H24.8633V85.2227H27.377C29.6436 85.2227 30.9863 86.6836 30.9863 89.1006C30.9863 91.5283 29.6436 93 27.2803 93ZM25.8301 92.1406H27.2158C29.1279 92.1406 30.041 90.9912 30.041 89.1006C30.041 87.2207 29.1279 86.082 27.3125 86.082H25.8301V92.1406ZM32.0068 91.3457C32.0068 90.0029 33.1885 89.7021 34.1982 89.627C34.5688 89.6001 35.5142 89.5518 35.7773 89.541V89.0684C35.7773 88.3271 35.3369 87.8975 34.4561 87.8975C33.7148 87.8975 33.2744 88.2412 33.1455 88.6816H32.1787C32.2969 87.7471 33.21 87.0918 34.499 87.0918C35.2617 87.0918 36.6904 87.3174 36.6904 89.1543V93H35.7773V92.2051H35.7344C35.541 92.6025 35.0039 93.1396 33.9941 93.1396C32.8877 93.1396 32.0068 92.4844 32.0068 91.3457ZM32.9307 91.3887C32.9307 92.001 33.4463 92.3125 34.1553 92.3125C35.1973 92.3125 35.7773 91.6143 35.7773 90.8838V90.293L34.3057 90.4004C33.4678 90.4541 32.9307 90.7549 32.9307 91.3887ZM40.7188 87.167V87.9404H39.4941V91.3242C39.4941 92.0762 39.8594 92.1943 40.2568 92.1943C40.4287 92.1943 40.665 92.1836 40.8047 92.1729V93.0322C40.665 93.0537 40.4287 93.0752 40.1602 93.0752C39.3867 93.0752 38.5596 92.5918 38.5596 91.5605V87.9404H37.6787V87.167H38.5596V85.7705H39.4941V87.167H40.7188ZM41.6318 91.3457C41.6318 90.0029 42.8135 89.7021 43.8232 89.627C44.1938 89.6001 45.1392 89.5518 45.4023 89.541V89.0684C45.4023 88.3271 44.9619 87.8975 44.0811 87.8975C43.3398 87.8975 42.8994 88.2412 42.7705 88.6816H41.8037C41.9219 87.7471 42.835 87.0918 44.124 87.0918C44.8867 87.0918 46.3154 87.3174 46.3154 89.1543V93H45.4023V92.2051H45.3594C45.166 92.6025 44.6289 93.1396 43.6191 93.1396C42.5127 93.1396 41.6318 92.4844 41.6318 91.3457ZM42.5557 91.3887C42.5557 92.001 43.0713 92.3125 43.7803 92.3125C44.8223 92.3125 45.4023 91.6143 45.4023 90.8838V90.293L43.9307 90.4004C43.0928 90.4541 42.5557 90.7549 42.5557 91.3887ZM51.8262 93V93.8486H46.96V93H51.8262ZM54.5117 93.1074C52.7822 93.1074 51.7939 91.6572 51.7939 89.1113C51.7939 86.5869 52.8037 85.1152 54.5117 85.1152C56.2197 85.1152 57.2295 86.5869 57.2295 89.1113C57.2295 91.6572 56.2305 93.1074 54.5117 93.1074ZM54.5117 92.248C55.6289 92.248 56.2842 91.1201 56.2842 89.1113C56.2842 87.1025 55.6289 85.9531 54.5117 85.9531C53.3945 85.9531 52.7285 87.1025 52.7285 89.1113C52.7285 91.1201 53.3838 92.248 54.5117 92.248ZM61.2041 93.1074C59.6572 93.1074 58.5508 92.2803 58.4971 91.0449H59.4746C59.5283 91.7861 60.2695 92.248 61.1934 92.248C62.2139 92.248 62.9658 91.6895 62.9658 90.8838C62.9658 90.0352 62.2891 89.4336 61.0752 89.4336H60.4414V88.585H61.0752C62.0205 88.585 62.6758 88.0586 62.6758 87.2529C62.6758 86.4795 62.1064 85.9531 61.2256 85.9531C60.3984 85.9531 59.6357 86.415 59.5928 87.1777H58.6582C58.7119 85.9424 59.8506 85.1152 61.2363 85.1152C62.7188 85.1152 63.6211 86.082 63.6104 87.1992C63.6211 88.0801 63.1055 88.7354 62.2891 88.9609V89.0146C63.2988 89.1758 63.9219 89.8955 63.9111 90.8838C63.9219 92.1621 62.751 93.1074 61.2041 93.1074Z" fill="#787486"/>
<circle cx="16.1671" cy="90.1671" r="2.16713" fill="#FCA9AE"/>
<rect x="81" y="17" width="18" height="18" rx="3" fill="#FFD5D7"/>
<rect x="104" y="40" width="18" height="18" rx="3" fill="#FFD5D7"/>
<rect x="81" y="86" width="18" height="18" rx="3" fill="#FFD5D7"/>
<rect x="127" y="86" width="18" height="18" rx="3" fill="#FFD5D7"/>
<rect x="104" y="109" width="18" height="18" rx="3" fill="#FFD5D7"/>
<rect x="104" y="17" width="18" height="18" rx="3" fill="#F98790"/>
<rect x="127" y="17" width="18" height="18" rx="3" fill="#FFD5D7"/>
<rect x="150" y="40" width="18" height="18" rx="3" fill="#FFD5D7"/>
<rect x="150" y="63" width="18" height="18" rx="3" fill="#FECACC"/>
<rect x="173" y="63" width="18" height="18" rx="3" fill="#FFD5D7"/>
<rect x="150" y="17" width="18" height="18" rx="3" fill="#F98790"/>
<rect x="127" y="40" width="18" height="18" rx="3" fill="#F98790"/>
<rect x="127" y="63" width="18" height="18" rx="3" fill="#F98790"/>
<rect x="104" y="63" width="18" height="18" rx="3" fill="#F98790"/>
<rect x="104" y="86" width="18" height="18" rx="3" fill="#F98790"/>
<rect x="81" y="63" width="18" height="18" rx="3" fill="#F98790"/>
<rect x="173" y="40" width="18" height="18" rx="3" fill="#F98790"/>
<rect x="196" y="63" width="18" height="18" rx="3" fill="#FF8899"/>
<rect x="196" y="109" width="18" height="18" rx="3" fill="#FF8899"/>
<rect x="173" y="109" width="18" height="18" rx="3" fill="#FF8899"/>
<rect x="150" y="109" width="18" height="18" rx="3" fill="#FF8899"/>
<rect x="173" y="86" width="18" height="18" rx="3" fill="#FF8899"/>
<rect x="173" y="17" width="18" height="18" rx="3" fill="#DC4858"/>
<rect x="150" y="86" width="18" height="18" rx="3" fill="#DC4858"/>
<rect x="127" y="109" width="18" height="18" rx="3" fill="#DC4858"/>
<rect x="81" y="109" width="18" height="18" rx="3" fill="#DC4858"/>
<rect x="196" y="86" width="18" height="18" rx="3" fill="#DC4858"/>
<rect x="81" y="40" width="18" height="18" rx="3" fill="#DC4858"/>
<rect x="196" y="17" width="18" height="18" rx="3" fill="#FCA9AE"/>
<rect x="196" y="40" width="18" height="18" rx="3" fill="#FCA9AE"/>
</svg>
