<svg width="114" height="25" viewBox="0 0 114 25" fill="none" xmlns="http://www.w3.org/2000/svg">
<path d="M31.5099 10.1128L31.8405 10.0938H31.8571C32.0995 10.1064 32.3145 10.1698 32.5018 10.2839C32.6892 10.3854 32.8546 10.5249 32.9978 10.7024L33.1301 10.8545L33.2293 10.7594C33.4938 10.4678 33.7804 10.3917 34.089 10.5312C34.2433 10.5946 34.3481 10.7024 34.4032 10.8545C34.4473 10.994 34.4362 11.2412 34.3701 11.5963C34.315 11.8752 34.1441 12.6614 33.8576 13.9547C33.4608 15.8059 33.2569 16.7695 33.2458 16.8456C33.2018 17.2006 33.1962 17.4479 33.2293 17.5874C33.2514 17.6508 33.2844 17.7015 33.3285 17.7395C33.3616 17.7776 33.4112 17.7966 33.4773 17.7966C33.5545 17.7966 33.6151 17.7839 33.6592 17.7585C33.8686 17.581 34.0835 17.0041 34.304 16.0278C34.3591 15.7869 34.4032 15.6537 34.4362 15.6284C34.4583 15.603 34.5905 15.5903 34.833 15.5903C35.0755 15.5903 35.2133 15.603 35.2464 15.6284C35.2684 15.6537 35.2794 15.7045 35.2794 15.7805C35.2794 15.8566 35.2519 16.0088 35.1968 16.237C34.7889 17.8346 34.2103 18.6588 33.4608 18.7095C32.8986 18.7475 32.4467 18.5257 32.105 18.0438C32.0499 17.9678 32.0003 17.8853 31.9562 17.7966C31.9342 17.7205 31.9177 17.6825 31.9067 17.6825L31.7909 17.7966C31.4051 18.1896 31.0249 18.4496 30.6501 18.5764C29.9337 18.8553 29.2889 18.7285 28.7157 18.196C28.6496 18.1326 28.589 18.0629 28.5339 17.9868C28.3685 17.7966 28.2308 17.5684 28.1205 17.3021C27.7899 16.5286 27.7237 15.622 27.9221 14.5823C28.1757 13.2002 28.7488 12.0591 29.6416 11.1588C30.2368 10.5629 30.8595 10.2142 31.5099 10.1128ZM31.8571 11.0067C31.4051 10.9179 30.9698 11.1652 30.5509 11.7484C30.4407 11.9133 30.3415 12.0908 30.2533 12.281C30.088 12.6487 29.8896 13.3714 29.6581 14.4492C29.5148 15.0578 29.4101 15.5903 29.344 16.0468C29.2999 16.4779 29.2999 16.8076 29.344 17.0358C29.4542 17.4796 29.6692 17.7332 29.9888 17.7966C30.1762 17.8346 30.4021 17.7902 30.6667 17.6634C31.0635 17.4099 31.4382 16.9851 31.7909 16.3892L31.8736 16.256L32.2869 14.3731L32.7002 12.4712L32.6672 12.319C32.568 11.5963 32.32 11.1652 31.9232 11.0257C31.9011 11.013 31.8791 11.0067 31.8571 11.0067Z" fill="#A3A3A6"/>
<path d="M25.1568 6.63307C25.3111 6.56967 25.4709 6.57601 25.6362 6.65209C25.7795 6.71549 25.8842 6.82326 25.9504 6.97542C26.0055 7.11489 25.989 7.38116 25.9008 7.77423C25.8677 7.93906 25.7961 8.28775 25.6858 8.82029C25.4544 9.79662 25.3442 10.2784 25.3552 10.2658C25.3552 10.2911 25.5922 10.3038 26.0661 10.3038H26.777L26.8266 10.3609C26.8928 10.4116 26.8928 10.5764 26.8266 10.8554C26.7936 11.0456 26.7605 11.1787 26.7274 11.2548C26.6944 11.3182 26.5897 11.3562 26.4133 11.3689C26.3362 11.3689 26.1543 11.3689 25.8677 11.3689H25.1237L25.1072 11.445C24.3687 14.7543 23.9829 16.5548 23.9499 16.8465C23.9278 16.9986 23.9168 17.1381 23.9168 17.2649C23.9168 17.6199 24.005 17.8038 24.1813 17.8164C24.2475 17.8164 24.3246 17.8038 24.4128 17.7784C24.5671 17.7657 24.7324 17.677 24.9088 17.5121C25.2946 17.1698 25.6142 16.6182 25.8677 15.8574C25.9228 15.7053 25.9834 15.6229 26.0496 15.6102C26.0826 15.5975 26.1929 15.5912 26.3802 15.5912C26.6227 15.5912 26.755 15.6039 26.777 15.6292C26.8432 15.6926 26.8432 15.8194 26.777 16.0096C26.5676 16.5929 26.3196 17.0747 26.033 17.4551C25.5922 18.1017 25.0851 18.5011 24.512 18.6533C24.4238 18.6786 24.2805 18.6913 24.0821 18.6913C23.8837 18.6913 23.746 18.6786 23.6688 18.6533C23.3602 18.5519 23.1122 18.3997 22.9248 18.1968C22.7484 17.994 22.6217 17.7467 22.5445 17.4551C22.5225 17.3536 22.5115 17.1825 22.5115 16.9416V16.5802L23.0736 13.9936C23.4484 12.2945 23.6357 11.4259 23.6357 11.3879C23.6357 11.3752 23.4043 11.3689 22.9413 11.3689C22.4564 11.3689 22.1918 11.3245 22.1477 11.2357C22.1257 11.1977 22.1367 11.0582 22.1808 10.8173C22.2469 10.5637 22.2855 10.4306 22.2965 10.4179C22.3296 10.3418 22.4453 10.3038 22.6437 10.3038C22.7209 10.3038 22.8862 10.3038 23.1397 10.3038H23.8837L24.1979 8.82029C24.4073 7.84397 24.5395 7.29241 24.5947 7.16561C24.6939 6.91202 24.8812 6.73451 25.1568 6.63307Z" fill="#A3A3A6"/>
<path d="M17.5724 10.1128L17.903 10.0938H17.9196C18.162 10.1064 18.377 10.1698 18.5643 10.2839C18.7517 10.3854 18.9171 10.5249 19.0603 10.7024L19.1926 10.8545L19.2918 10.7594C19.5563 10.4678 19.8429 10.3917 20.1515 10.5312C20.3058 10.5946 20.4106 10.7024 20.4657 10.8545C20.5098 10.994 20.4987 11.2412 20.4326 11.5963C20.3775 11.8752 20.2066 12.6614 19.9201 13.9547C19.5233 15.8059 19.3194 16.7695 19.3083 16.8456C19.2643 17.2006 19.2587 17.4479 19.2918 17.5874C19.3139 17.6508 19.3469 17.7015 19.391 17.7395C19.4241 17.7776 19.4737 17.7966 19.5398 17.7966C19.617 17.7966 19.6776 17.7839 19.7217 17.7585C19.9311 17.581 20.146 17.0041 20.3665 16.0278C20.4216 15.7869 20.4657 15.6537 20.4987 15.6284C20.5208 15.603 20.653 15.5903 20.8955 15.5903C21.138 15.5903 21.2758 15.603 21.3089 15.6284C21.3309 15.6537 21.3419 15.7045 21.3419 15.7805C21.3419 15.8566 21.3144 16.0088 21.2593 16.237C20.8514 17.8346 20.2728 18.6588 19.5233 18.7095C18.9611 18.7475 18.5092 18.5257 18.1675 18.0438C18.1124 17.9678 18.0628 17.8853 18.0188 17.7966C17.9967 17.7205 17.9802 17.6825 17.9692 17.6825L17.8534 17.7966C17.4676 18.1896 17.0874 18.4496 16.7126 18.5764C15.9962 18.8553 15.3514 18.7285 14.7782 18.196C14.7121 18.1326 14.6515 18.0629 14.5964 17.9868C14.431 17.7966 14.2933 17.5684 14.183 17.3021C13.8524 16.5286 13.7862 15.622 13.9846 14.5823C14.2382 13.2002 14.8113 12.0591 15.7041 11.1588C16.2993 10.5629 16.922 10.2142 17.5724 10.1128ZM17.9196 11.0067C17.4676 10.9179 17.0323 11.1652 16.6134 11.7484C16.5032 11.9133 16.404 12.0908 16.3158 12.281C16.1505 12.6487 15.9521 13.3714 15.7206 14.4492C15.5773 15.0578 15.4726 15.5903 15.4065 16.0468C15.3624 16.4779 15.3624 16.8076 15.4065 17.0358C15.5167 17.4796 15.7317 17.7332 16.0513 17.7966C16.2387 17.8346 16.4646 17.7902 16.7292 17.6634C17.126 17.4099 17.5007 16.9851 17.8534 16.3892L17.9361 16.256L18.3494 14.3731L18.7627 12.4712L18.7297 12.319C18.6305 11.5963 18.3825 11.1652 17.9857 11.0257C17.9636 11.013 17.9416 11.0067 17.9196 11.0067Z" fill="#A3A3A6"/>
<path d="M3.04283 5.93239L3.09698 5.875H6.31C8.48812 5.875 9.6193 5.88138 9.70353 5.89413C10.931 6.02167 11.8516 6.67848 12.4653 7.86457C12.7902 8.4895 12.9827 9.2037 13.0429 10.0072C13.079 10.4025 13.073 10.8744 13.0249 11.4228C12.7962 13.4507 11.996 15.2043 10.6241 16.6837C10.4677 16.8623 10.3052 17.0281 10.1367 17.1811C9.13794 18.1249 8.04889 18.6988 6.86957 18.9029C6.76127 18.9156 5.60603 18.9284 3.40384 18.9411C1.20166 18.9411 0.0825175 18.922 0.0464161 18.8837C0.0343823 18.8837 0.0223485 18.8582 0.0103147 18.8072C-0.0137529 18.7689 0.00429778 18.6223 0.0644668 18.3672C0.124636 18.0994 0.172771 17.9527 0.208872 17.9272L0.263024 17.8698H0.840646C1.3942 17.8571 1.70708 17.8316 1.77928 17.7933C1.83945 17.755 1.88759 17.6785 1.92369 17.5637C2.00792 17.3087 2.42309 15.5869 3.16918 12.3985C3.99952 8.87849 4.41468 7.10573 4.41468 7.08022C4.41468 7.04196 4.40265 7.02283 4.37858 7.02283C4.30638 6.99732 4.02358 6.97181 3.5302 6.94631C3.10902 6.94631 2.87436 6.90167 2.82622 6.81239C2.81419 6.77413 2.83224 6.62747 2.88037 6.37239C2.94054 6.13007 2.99469 5.98341 3.04283 5.93239ZM8.89125 6.96544H6.59881C6.43034 6.97819 6.34009 7.01008 6.32805 7.06109L3.78291 17.7933C3.78291 17.8316 3.83104 17.8507 3.92731 17.8507C3.96341 17.8634 4.39061 17.8698 5.20891 17.8698C5.99111 17.8571 6.45441 17.8379 6.59881 17.8124C7.74202 17.5956 8.67464 16.9898 9.39667 15.995C9.82989 15.3956 10.1969 14.5539 10.4978 13.4698C10.7745 12.424 10.955 11.6014 11.0393 11.002C11.2679 9.65008 11.1416 8.63617 10.6602 7.96022C10.2511 7.39906 9.66141 7.06747 8.89125 6.96544Z" fill="#A3A3A6"/>
<path d="M110.706 19.1033C109.964 19.1033 109.339 18.97 108.831 18.7035C108.323 18.4258 107.869 18.0371 107.469 17.5373L108.743 16.0712C109.017 16.4155 109.319 16.6876 109.651 16.8875C109.983 17.0875 110.359 17.1874 110.779 17.1874C111.209 17.1874 111.507 17.1152 111.673 16.9708C111.839 16.8154 111.922 16.6099 111.922 16.3544C111.922 15.9435 111.663 15.6991 111.145 15.6214L110.31 15.5048C108.582 15.2604 107.718 14.3608 107.718 12.8059C107.718 12.3838 107.786 12.0006 107.923 11.6563C108.069 11.3009 108.27 11.0011 108.523 10.7567C108.787 10.5013 109.1 10.3069 109.461 10.1736C109.832 10.0292 110.247 9.95703 110.706 9.95703C111.106 9.95703 111.458 9.99035 111.761 10.057C112.073 10.1125 112.347 10.2014 112.581 10.3235C112.825 10.4346 113.045 10.579 113.24 10.7567C113.445 10.9233 113.645 11.1121 113.841 11.3231L112.596 12.7726C112.351 12.4949 112.073 12.2783 111.761 12.1228C111.458 11.9562 111.145 11.8729 110.823 11.8729C110.452 11.8729 110.188 11.9396 110.032 12.0728C109.876 12.2061 109.798 12.3838 109.798 12.606C109.798 12.8392 109.852 13.0225 109.959 13.1557C110.076 13.2779 110.291 13.3668 110.603 13.4223L111.468 13.5556C113.157 13.811 114.002 14.6884 114.002 16.1878C114.002 16.6099 113.924 16.9986 113.767 17.354C113.611 17.7094 113.387 18.0204 113.094 18.287C112.81 18.5424 112.464 18.7424 112.054 18.8867C111.653 19.0311 111.204 19.1033 110.706 19.1033Z" fill="#A3A3A6"/>
<path d="M95.707 19.1033V10.1614H97.6104V11.6773H97.6875C97.8076 11.2004 98.0133 10.7973 98.3048 10.468C98.5963 10.1274 98.995 9.95703 99.5008 9.95703C99.9638 9.95703 100.358 10.1103 100.684 10.4169C101.01 10.7235 101.246 11.172 101.391 11.7624H101.43C101.49 11.5126 101.58 11.2799 101.7 11.0641C101.829 10.837 101.983 10.644 102.163 10.485C102.343 10.3261 102.544 10.2012 102.767 10.1103C102.99 10.0081 103.23 9.95703 103.488 9.95703C104.139 9.95703 104.636 10.2636 104.979 10.8768C105.331 11.4899 105.507 12.3642 105.507 13.4997V19.1033H103.603V13.7041C103.603 12.5686 103.295 12.0009 102.677 12.0009C102.394 12.0009 102.137 12.1088 101.906 12.3245C101.674 12.5402 101.558 12.8695 101.558 13.3124V19.1033H99.6552V13.7041C99.6552 12.5686 99.3465 12.0009 98.7292 12.0009C98.592 12.0009 98.4549 12.0293 98.3177 12.0861C98.1891 12.1315 98.069 12.211 97.9576 12.3245C97.8547 12.4381 97.769 12.58 97.7004 12.7503C97.6404 12.9093 97.6104 13.0966 97.6104 13.3124V19.1033H95.707Z" fill="#A3A3A6"/>
<path d="M92.689 18.9034C92.3441 18.9034 92.0551 18.7646 91.8223 18.4869C91.598 18.2092 91.4557 17.8372 91.3954 17.3707H91.3177C91.2143 17.9371 90.9857 18.3703 90.6321 18.6702C90.2785 18.9589 89.843 19.1033 89.3255 19.1033C88.6442 19.1033 88.1224 18.8701 87.7601 18.4036C87.3979 17.9371 87.2168 17.3207 87.2168 16.5544C87.2168 15.6325 87.4755 14.9494 87.993 14.5052C88.5191 14.0498 89.2306 13.8221 90.1276 13.8221H91.2013V13.2724C91.2013 12.8503 91.1151 12.5171 90.9426 12.2728C90.7701 12.0173 90.4812 11.8896 90.0758 11.8896C89.6963 11.8896 89.3945 11.9951 89.1702 12.2061C88.946 12.4171 88.7606 12.6559 88.614 12.9225L87.4755 11.623C87.7515 11.101 88.0965 10.6956 88.5105 10.4068C88.9331 10.107 89.5023 9.95703 90.2181 9.95703C91.1841 9.95703 91.9085 10.2291 92.3915 10.7734C92.8745 11.3176 93.116 12.1117 93.116 13.1557V16.9875H93.7499V18.9034H92.689ZM90.037 17.3873C90.3561 17.3873 90.6278 17.2985 90.852 17.1208C91.0849 16.9431 91.2013 16.6543 91.2013 16.2545V15.2216H90.2699C89.5195 15.2216 89.1444 15.5492 89.1444 16.2045V16.4544C89.1444 16.7765 89.222 17.0153 89.3772 17.1708C89.5325 17.3152 89.7524 17.3873 90.037 17.3873Z" fill="#A3A3A6"/>
<path d="M82.4224 19.1033C81.8358 19.1033 81.3127 18.9978 80.8531 18.7868C80.3936 18.5646 80.0025 18.2592 79.6799 17.8705C79.367 17.4706 79.1274 16.9875 78.9612 16.4211C78.8048 15.8546 78.7266 15.2216 78.7266 14.5218C78.7266 13.8332 78.8048 13.2113 78.9612 12.6559C79.1177 12.0895 79.3474 11.6064 79.6505 11.2065C79.9634 10.8067 80.3447 10.5013 80.7945 10.2902C81.2442 10.0681 81.7575 9.95703 82.3344 9.95703C82.9699 9.95703 83.5126 10.0792 83.9623 10.3235C84.4219 10.5679 84.7934 10.8955 85.077 11.3065C85.3703 11.7174 85.5805 12.195 85.7076 12.7392C85.8445 13.2724 85.9129 13.8332 85.9129 14.4219V15.1549H80.9705V15.2882C80.9705 15.8657 81.1074 16.3267 81.3811 16.671C81.6549 17.0042 82.0851 17.1708 82.6717 17.1708C83.1215 17.1708 83.4881 17.0708 83.7717 16.8709C84.0552 16.6599 84.3192 16.41 84.5637 16.1212L85.6489 17.6539C85.3067 18.1093 84.857 18.4647 84.2997 18.7201C83.7521 18.9756 83.1264 19.1033 82.4224 19.1033ZM82.3784 11.773C81.9384 11.773 81.5913 11.9396 81.3371 12.2728C81.0927 12.5948 80.9705 13.028 80.9705 13.5722V13.7055H83.669V13.5556C83.669 13.0225 83.5615 12.5948 83.3464 12.2728C83.141 11.9396 82.8184 11.773 82.3784 11.773Z" fill="#A3A3A6"/>
<path d="M72.6367 19.1022V10.2324H75.1371V12.1584H75.2216C75.2667 11.9106 75.3455 11.6741 75.4581 11.4488C75.5708 11.2123 75.7172 11.0039 75.8974 10.8237C76.0889 10.6435 76.3141 10.5027 76.5732 10.4014C76.8323 10.2887 77.1364 10.2324 77.4855 10.2324H77.9248V12.5639H77.2997C76.5676 12.5639 76.0213 12.6596 75.6609 12.8511C75.3117 13.0426 75.1371 13.3974 75.1371 13.9155V19.1022H72.6367Z" fill="#A3A3A6"/>
<path d="M68.6241 19.1028C67.7568 19.1028 67.0979 18.8832 66.6474 18.4439C66.2081 18.0046 65.9885 17.3626 65.9885 16.5179V12.1759H64.7383V10.233H65.3634C65.7013 10.233 65.9322 10.1542 66.0561 9.99651C66.18 9.82757 66.2419 9.59104 66.2419 9.28693V7.83398H68.4889V10.233H70.246V12.1759H68.4889V17.1599H70.1108V19.1028H68.6241Z" fill="#A3A3A6"/>
<path d="M40.4407 9.752C40.6764 10.5194 41.2657 11.1947 42.1121 11.7472C42.7335 13.6707 45.4978 15.0111 49.2263 15.4203C46.7835 14.745 45.0906 13.5582 44.7585 12.0234C44.0728 8.97439 49.0013 5.71049 55.7511 4.73848C57.9689 4.4213 60.1118 4.3906 62.0081 4.59524C59.5761 3.91995 56.3833 3.74601 53.019 4.2269C48.7656 4.8408 45.2406 6.36531 43.3764 8.17632C44.5335 5.76165 48.7334 3.54137 54.1119 2.76377C56.3297 2.44659 58.4725 2.41589 60.3689 2.62052C57.9368 1.94523 54.744 1.7713 51.3798 2.25218C47.1156 2.86608 43.5907 4.3906 41.7371 6.20161C42.8835 3.78693 47.0942 1.55643 52.4619 0.789055C54.6797 0.471874 56.8225 0.441179 58.7189 0.645812C56.2868 -0.0294781 53.1048 -0.213648 49.7298 0.277472C42.98 1.24948 38.0515 4.51338 38.7372 7.56242C38.93 8.41165 39.53 9.13809 40.4407 9.752Z" fill="#A3A3A6"/>
<path d="M58.7725 15.3283C58.5368 14.5813 57.9475 13.9367 57.1011 13.3945C56.4797 11.5323 53.7155 10.2329 49.987 9.83385C52.4298 10.4887 54.1119 11.6449 54.4654 13.1284C55.1404 16.0854 50.2227 19.2572 43.4621 20.1985C41.2443 20.5055 39.1015 20.5362 37.2051 20.3315C39.6372 20.9864 42.83 21.1603 46.1942 20.6896C50.4584 20.0962 53.9833 18.6126 55.8368 16.863C54.6797 19.2061 50.4798 21.3649 45.1013 22.1119C42.8835 22.4188 40.7407 22.4495 38.8443 22.2551C41.2764 22.9099 44.4692 23.0839 47.8334 22.6132C52.0869 22.0198 55.6226 20.5362 57.4761 18.7866C56.319 21.1296 52.1191 23.2783 46.7513 24.0354C44.5335 24.3424 42.3907 24.373 40.4943 24.1786C42.9264 24.8335 46.1192 25.0074 49.4834 24.5368C56.2333 23.5954 61.1617 20.4236 60.476 17.4667C60.2832 16.6481 59.6832 15.9319 58.7618 15.3385L58.7725 15.3283Z" fill="#A3A3A6"/>
</svg>
