<svg width="16" height="16" viewBox="0 0 16 16" fill="none" xmlns="http://www.w3.org/2000/svg">
<path d="M10.8 2H5.2C4.0799 2 3.51984 2 3.09202 2.2089C2.71569 2.39266 2.40973 2.68587 2.21799 3.04652C2 3.45652 2 3.99323 2 5.06667V10.4333C2 11.5068 2 12.0435 2.21799 12.4535C2.40973 12.8141 2.71569 13.1073 3.09202 13.2911C3.51984 13.5 4.07989 13.5 5.2 13.5H10.8C11.9201 13.5 12.4802 13.5 12.908 13.2911C13.2843 13.1073 13.5903 12.8141 13.782 12.4535C14 12.0435 14 11.5068 14 10.4333V5.06667C14 3.99323 14 3.45652 13.782 3.04652C13.5903 2.68587 13.2843 2.39266 12.908 2.2089C12.4802 2 11.9201 2 10.8 2Z" fill="#C4DEF8"/>
<path d="M6 2V13.5M10 2V13.5M5.2 2H10.8C11.9201 2 12.4802 2 12.908 2.2089C13.2843 2.39266 13.5903 2.68587 13.782 3.04652C14 3.45652 14 3.99323 14 5.06667V10.4333C14 11.5068 14 12.0435 13.782 12.4535C13.5903 12.8141 13.2843 13.1073 12.908 13.2911C12.4802 13.5 11.9201 13.5 10.8 13.5H5.2C4.07989 13.5 3.51984 13.5 3.09202 13.2911C2.71569 13.1073 2.40973 12.8141 2.21799 12.4535C2 12.0435 2 11.5068 2 10.4333V5.06667C2 3.99323 2 3.45652 2.21799 3.04652C2.40973 2.68587 2.71569 2.39266 3.09202 2.2089C3.51984 2 4.0799 2 5.2 2Z" stroke="#0F56B3" stroke-width="1.33333" stroke-linecap="round" stroke-linejoin="round"/>
</svg>
