<svg width="16" height="16" viewBox="0 0 16 16" fill="none" xmlns="http://www.w3.org/2000/svg">
<path d="M2 4.90067C2 4.18546 2 3.82786 2.14169 3.55469C2.26633 3.3144 2.4652 3.11904 2.70981 2.99661C2.9879 2.85742 3.35193 2.85742 4.08 2.85742H4.34C5.79614 2.85742 6.5242 2.85742 7.08038 3.1358C7.5696 3.38066 7.96735 3.77138 8.21662 4.25196C8.5 4.7983 8.5 5.51351 8.5 6.94391V14.0003L8.43496 13.9045C7.98345 13.2391 7.75769 13.2569 7.45942 13.0161C7.19536 12.8029 6.8911 12.6429 6.56404 12.5454C6.19461 12.4351 5.78762 12.4351 4.97364 12.4351H4.08C3.35193 12.4351 2.9879 12.4351 2.70981 12.296C2.4652 12.1735 2.26633 11.9782 2.14169 11.7379C2 11.4647 2 11.1071 2 10.3919V4.90067Z" fill="#6D46C8" fill-opacity="0.22"/>
<path d="M15 4.90067C15 4.18546 15 3.82786 14.8583 3.55469C14.7337 3.3144 14.5348 3.11904 14.2902 2.99661C14.0121 2.85742 13.6481 2.85742 12.92 2.85742H12.66C11.2039 2.85742 10.4758 2.85742 9.91963 3.1358C9.4304 3.38066 9.03265 3.77138 8.78338 4.25196C8.5 4.7983 8.5 5.51351 8.5 6.94391V14.0003L8.56504 13.9045C9.01655 13.2391 9.24231 13.2569 9.54058 13.0161C9.80464 12.8029 10.1089 12.6429 10.436 12.5454C10.8054 12.4351 11.2124 12.4351 12.0264 12.4351H12.92C13.6481 12.4351 14.0121 12.4351 14.2902 12.296C14.5348 12.1735 14.7337 11.9782 14.8583 11.7379C15 11.4647 15 11.1071 15 10.3919V4.90067Z" fill="#6D46C8" fill-opacity="0.22"/>
<path d="M8.5 14.0003L8.43496 13.9045C7.98345 13.2391 7.75769 13.2569 7.45942 13.0161C7.19536 12.8029 6.8911 12.6429 6.56404 12.5453C6.19461 12.4351 5.78762 12.4351 4.97364 12.4351H4.08C3.35193 12.4351 2.9879 12.4351 2.70981 12.296C2.4652 12.1735 2.26633 11.9782 2.14169 11.7379C2 11.4647 2 11.1071 2 10.3919V4.90067C2 4.18546 2 3.82786 2.14169 3.55469C2.26633 3.3144 2.4652 3.11904 2.70981 2.99661C2.9879 2.85742 3.35193 2.85742 4.08 2.85742H4.34C5.79614 2.85742 6.5242 2.85742 7.08038 3.1358C7.5696 3.38066 7.96735 3.77138 8.21662 4.25196C8.5 4.7983 8.5 5.51351 8.5 6.94391M8.5 14.0003V6.94391M8.5 14.0003L8.56504 13.9045C9.01655 13.2391 9.24231 13.2569 9.54058 13.0161C9.80464 12.8029 10.1089 12.6429 10.436 12.5453C10.8054 12.4351 11.2124 12.4351 12.0264 12.4351H12.92C13.6481 12.4351 14.0121 12.4351 14.2902 12.296C14.5348 12.1735 14.7337 11.9782 14.8583 11.7379C15 11.4647 15 11.1071 15 10.3919V4.90067C15 4.18546 15 3.82786 14.8583 3.55469C14.7337 3.3144 14.5348 3.11904 14.2902 2.99661C14.0121 2.85742 13.6481 2.85742 12.92 2.85742H12.66C11.2039 2.85742 10.4758 2.85742 9.91963 3.1358C9.4304 3.38066 9.03265 3.77138 8.78338 4.25196C8.5 4.7983 8.5 5.51351 8.5 6.94391" stroke="#730C8F" stroke-width="1.20714" stroke-linecap="round" stroke-linejoin="round"/>
</svg>
