<svg width="16" height="16" viewBox="0 0 16 16" fill="none" xmlns="http://www.w3.org/2000/svg">
<path d="M14 4.77778L14 5.26263C14 4.47063 14 4.07464 13.8547 3.77213C13.7268 3.50605 13.5229 3.28971 13.272 3.15413C12.9868 3 12.6134 3 11.8667 3L4.13333 3C3.3866 3 3.01323 3 2.72801 3.15413C2.47713 3.28971 2.27316 3.50605 2.14532 3.77213C2 4.07464 2 4.47063 2 5.26263L2 4.77778C2 5.56977 2 5.96577 2.14532 6.26827C2.27316 6.53436 2.47713 6.75069 2.72801 6.88627C3.01323 7.0404 3.3866 7.0404 4.13333 7.0404L11.8667 7.0404C12.6134 7.0404 12.9868 7.0404 13.272 6.88627C13.5229 6.75069 13.7268 6.53436 13.8547 6.26827C14 5.96577 14 5.56977 14 4.77778Z" fill="#FFE5C4"/>
<path d="M14 10.7374L14 11.2222C14 10.4302 14 10.0342 13.8547 9.73173C13.7268 9.46564 13.5229 9.24931 13.272 9.11373C12.9868 8.9596 12.6134 8.9596 11.8667 8.9596L4.13333 8.9596C3.3866 8.9596 3.01323 8.9596 2.72801 9.11373C2.47713 9.24931 2.27315 9.46564 2.14532 9.73173C2 10.0342 2 10.4302 2 11.2222L2 10.7374C2 11.5294 2 11.9254 2.14532 12.2279C2.27315 12.494 2.47713 12.7103 2.72801 12.8459C3.01323 13 3.3866 13 4.13333 13L11.8667 13C12.6134 13 12.9868 13 13.272 12.8459C13.5229 12.7103 13.7268 12.494 13.8547 12.2279C14 11.9254 14 11.5294 14 10.7374Z" fill="#FFE5C4"/>
<path d="M14 4.77778L14 5.26263C14 4.47063 14 4.07464 13.8547 3.77213C13.7268 3.50605 13.5229 3.28971 13.272 3.15413C12.9868 3 12.6134 3 11.8667 3L4.13333 3C3.3866 3 3.01323 3 2.72801 3.15413C2.47713 3.28971 2.27316 3.50605 2.14532 3.77213C2 4.07464 2 4.47063 2 5.26263L2 4.77778C2 5.56977 2 5.96577 2.14532 6.26827C2.27316 6.53436 2.47713 6.75069 2.72801 6.88627C3.01323 7.0404 3.3866 7.0404 4.13333 7.0404L11.8667 7.0404C12.6134 7.0404 12.9868 7.0404 13.272 6.88627C13.5229 6.75069 13.7268 6.53436 13.8547 6.26827C14 5.96577 14 5.56977 14 4.77778Z" stroke="#BF710F" stroke-width="1.3" stroke-linecap="round" stroke-linejoin="round"/>
<path d="M14 10.7374L14 11.2222C14 10.4302 14 10.0342 13.8547 9.73173C13.7268 9.46564 13.5229 9.24931 13.272 9.11373C12.9868 8.9596 12.6134 8.9596 11.8667 8.9596L4.13333 8.9596C3.3866 8.9596 3.01323 8.9596 2.72801 9.11373C2.47713 9.24931 2.27315 9.46564 2.14532 9.73173C2 10.0342 2 10.4302 2 11.2222L2 10.7374C2 11.5294 2 11.9254 2.14532 12.2279C2.27315 12.494 2.47713 12.7103 2.72801 12.8459C3.01323 13 3.3866 13 4.13333 13L11.8667 13C12.6134 13 12.9868 13 13.272 12.8459C13.5229 12.7103 13.7268 12.494 13.8547 12.2279C14 11.9254 14 11.5294 14 10.7374Z" stroke="#BF710F" stroke-width="1.3" stroke-linecap="round" stroke-linejoin="round"/>
</svg>
