<svg width="27" height="25" viewBox="0 0 27 25" fill="none" xmlns="http://www.w3.org/2000/svg">
<path d="M19.3333 1H7.66667C5.33311 1 4.16634 1 3.27504 1.41781C2.49103 1.78532 1.85361 2.37175 1.45414 3.09304C1 3.91303 1 4.98647 1 7.13333V17.8667C1 20.0135 1 21.087 1.45414 21.907C1.85361 22.6283 2.49103 23.2147 3.27504 23.5822C4.16634 24 5.33311 24 7.66667 24H19.3333C21.6669 24 22.8337 24 23.725 23.5822C24.509 23.2147 25.1464 22.6283 25.5459 21.907C26 21.087 26 20.0135 26 17.8667V7.13333C26 4.98647 26 3.91303 25.5459 3.09304C25.1464 2.37175 24.509 1.78532 23.725 1.41781C22.8337 1 21.6669 1 19.3333 1Z" fill="white" stroke="#B0B0B0" stroke-linecap="round" stroke-linejoin="round"/>
<path d="M21 15L18 12L21 9" stroke="#909090" stroke-width="2.28099" stroke-linecap="round" stroke-linejoin="round"/>
<path d="M5.74132 7.28099C5.74132 6.43066 6.43066 5.74132 7.28099 5.74132H10.719C11.5693 5.74132 12.2587 6.43066 12.2587 7.28099V17.719C12.2587 18.5693 11.5693 19.2587 10.719 19.2587H7.28099C6.43066 19.2587 5.74132 18.5693 5.74132 17.719V7.28099Z" fill="#A6A6A6" stroke="#9B9B9B" stroke-width="1.48264"/>
</svg>
