<svg width="27" height="25" viewBox="0 0 27 25" fill="none" xmlns="http://www.w3.org/2000/svg">
<path d="M7.66667 1H19.3333C21.6669 1 22.8337 1 23.725 1.41781C24.509 1.78532 25.1464 2.37175 25.5459 3.09304C26 3.91303 26 4.98647 26 7.13333V17.8667C26 20.0135 26 21.087 25.5459 21.907C25.1464 22.6283 24.509 23.2147 23.725 23.5822C22.8337 24 21.6669 24 19.3333 24H7.66667C5.33311 24 4.16634 24 3.27504 23.5822C2.49103 23.2147 1.85361 22.6283 1.45414 21.907C1 21.087 1 20.0135 1 17.8667V7.13333C1 4.98647 1 3.91303 1.45414 3.09304C1.85361 2.37175 2.49103 1.78532 3.27504 1.41781C4.16634 1 5.33311 1 7.66667 1Z" fill="white" stroke="#6E6E6E" stroke-linecap="round" stroke-linejoin="round"/>
<path d="M6 15L9 12L6 9" stroke="#626262" stroke-width="2.28099" stroke-linecap="round" stroke-linejoin="round"/>
<path d="M21.2587 7.28099C21.2587 6.43066 20.5693 5.74132 19.719 5.74132H16.281C15.4307 5.74132 14.7413 6.43066 14.7413 7.28099V17.719C14.7413 18.5693 15.4307 19.2587 16.281 19.2587H19.719C20.5693 19.2587 21.2587 18.5693 21.2587 17.719V7.28099Z" fill="#808080" stroke="#636363" stroke-width="1.48264"/>
</svg>
